M48
; DRILL file {KiCad 5.1.6} date Sun Aug 16 02:17:24 2020
; FORMAT={-:-/ absolute / inch / decimal}
; #@! TF.CreationDate,2020-08-16T02:17:24-06:00
; #@! TF.GenerationSoftware,Kicad,Pcbnew,5.1.6
FMAT,2
INCH
T1C0.0315
T2C0.0350
T3C0.0354
T4C0.0390
T5C0.0394
T6C0.0400
T7C0.0433
T8C0.0510
T9C0.0730
T10C0.0860
T11C0.1260
T12C0.1457
%
G90
G05
T1
X11.9516Y-2.3
X12.05Y-2.3
X11.65Y-2.3
X11.65Y-2.4
X11.9516Y-1.85
X12.05Y-1.85
X11.15Y-2.3
X11.15Y-2.4
X11.4Y-2.3
X11.4Y-2.4
X10.9Y-2.3
X10.9Y-2.4
X11.84Y-2.5
X11.84Y-2.6
T2
X5.516Y-8.401
X5.516Y-8.499
X5.599Y-8.5
X5.615Y-8.403
X5.701Y-8.402
X5.701Y-8.5
X5.784Y-8.402
X5.784Y-8.5
X4.716Y-8.401
X4.716Y-8.499
X4.799Y-8.5
X4.815Y-8.403
X4.901Y-8.402
X4.901Y-8.5
X4.984Y-8.402
X4.984Y-8.5
T3
X11.55Y-2.6
X11.65Y-2.6
X12.0Y-2.6
X12.1Y-2.6
X11.3Y-2.6
X11.4Y-2.6
X11.05Y-2.6
X11.15Y-2.6
X10.8Y-2.6
X10.9Y-2.6
T5
X7.9Y-1.6
X7.9Y-1.7
X8.0Y-1.6
X8.0Y-1.7
X8.1Y-1.6
X8.1Y-1.7
X8.2Y-1.6
X8.2Y-1.7
X8.3Y-1.6
X8.3Y-1.7
X8.4Y-1.6
X8.4Y-1.7
X8.5Y-1.6
X8.5Y-1.7
X8.6Y-1.6
X8.6Y-1.7
X1.9913Y-1.4
X2.0459Y-1.2882
X2.1004Y-1.4
X2.1549Y-1.2882
X2.2094Y-1.4
X2.264Y-1.2882
X2.3185Y-1.4
X2.373Y-1.2882
X2.4276Y-1.4
X2.4821Y-1.2882
X2.5366Y-1.4
X2.5911Y-1.2882
X2.6457Y-1.4
X2.7002Y-1.2882
X2.7547Y-1.4
X2.8093Y-1.2882
X2.8638Y-1.4
X2.9183Y-1.2882
X2.9728Y-1.4
X3.0274Y-1.2882
X3.0819Y-1.4
X3.1364Y-1.2882
X3.1909Y-1.4
X3.2455Y-1.2882
X3.3Y-1.4
X2.0Y-8.4
X2.0545Y-8.5118
X2.1091Y-8.4
X2.1636Y-8.5118
X2.2181Y-8.4
X2.2726Y-8.5118
X2.3272Y-8.4
X2.3817Y-8.5118
X2.4362Y-8.4
X3.4Y-8.4
X3.4545Y-8.5118
X3.5091Y-8.4
X3.5636Y-8.5118
X3.6181Y-8.4
X3.6726Y-8.5118
X3.7272Y-8.4
X3.7817Y-8.5118
X3.8362Y-8.4
X10.65Y-1.55
X10.75Y-1.55
X4.2913Y-1.4
X4.3459Y-1.2882
X4.4004Y-1.4
X4.4549Y-1.2882
X4.5094Y-1.4
X4.564Y-1.2882
X4.6185Y-1.4
X4.673Y-1.2882
X4.7276Y-1.4
X4.7821Y-1.2882
X4.8366Y-1.4
X4.8911Y-1.2882
X4.9457Y-1.4
X5.0002Y-1.2882
X5.0547Y-1.4
X5.1093Y-1.2882
X5.1638Y-1.4
X5.2183Y-1.2882
X5.2728Y-1.4
X5.3274Y-1.2882
X5.3819Y-1.4
X5.4364Y-1.2882
X5.4909Y-1.4
X5.5455Y-1.2882
X5.6Y-1.4
X9.15Y-1.55
X9.25Y-1.55
X9.9Y-1.55
X10.0Y-1.55
X7.9648Y-1.392
X8.0098Y-1.3141
X8.0098Y-1.47
X8.0549Y-1.392
X8.1Y-1.3141
X8.1Y-1.47
X8.1451Y-1.392
X8.1902Y-1.3141
X8.1902Y-1.47
X8.2352Y-1.392
X8.2803Y-1.3141
X8.2803Y-1.47
X8.3254Y-1.392
X8.3705Y-1.3141
X8.3705Y-1.47
X6.6Y-1.6
X6.6Y-1.7
X6.7Y-1.6
X6.7Y-1.7
X6.8Y-1.6
X6.8Y-1.7
X6.9Y-1.6
X6.9Y-1.7
X7.0Y-1.6
X7.0Y-1.7
X2.1Y-1.6
X2.1Y-1.7
X2.2Y-1.6
X2.2Y-1.7
X2.3Y-1.6
X2.3Y-1.7
X2.4Y-1.6
X2.4Y-1.7
X2.5Y-1.6
X2.5Y-1.7
X2.6Y-1.6
X2.6Y-1.7
X2.7Y-1.6
X2.7Y-1.7
X2.8Y-1.6
X2.8Y-1.7
X2.9Y-1.6
X2.9Y-1.7
X3.0Y-1.6
X3.0Y-1.7
X3.1Y-1.6
X3.1Y-1.7
X3.2Y-1.6
X3.2Y-1.7
X3.3Y-1.6
X3.3Y-1.7
X6.5638Y-1.4
X6.6183Y-1.2882
X6.6728Y-1.4
X6.7274Y-1.2882
X6.7819Y-1.4
X6.8364Y-1.2882
X6.8909Y-1.4
X6.9455Y-1.2882
X7.0Y-1.4
X4.4Y-1.6
X4.4Y-1.7
X4.5Y-1.6
X4.5Y-1.7
X4.6Y-1.6
X4.6Y-1.7
X4.7Y-1.6
X4.7Y-1.7
X4.8Y-1.6
X4.8Y-1.7
X4.9Y-1.6
X4.9Y-1.7
X5.0Y-1.6
X5.0Y-1.7
X5.1Y-1.6
X5.1Y-1.7
X5.2Y-1.6
X5.2Y-1.7
X5.3Y-1.6
X5.3Y-1.7
X5.4Y-1.6
X5.4Y-1.7
X5.5Y-1.6
X5.5Y-1.7
X5.6Y-1.6
X5.6Y-1.7
T6
X10.2Y-6.3
X10.2Y-6.4
X10.2Y-6.5
X10.2Y-6.6
X10.2Y-6.7
X10.3Y-6.3
X10.3Y-6.4
X10.3Y-6.5
X10.3Y-6.6
X10.3Y-6.7
X10.4Y-6.3
X10.4Y-6.4
X10.4Y-6.5
X10.4Y-6.6
X10.4Y-6.7
X10.5Y-6.3
X10.5Y-6.4
X10.5Y-6.5
X10.5Y-6.6
X10.5Y-6.7
X10.6Y-6.3
X10.6Y-6.4
X10.6Y-6.5
X10.6Y-6.6
X10.6Y-6.7
X6.2Y-7.3
X6.2Y-7.4
X6.2Y-7.5
X6.2Y-7.6
X6.2Y-7.7
X6.3Y-7.3
X6.3Y-7.4
X6.3Y-7.5
X6.3Y-7.6
X6.3Y-7.7
X6.4Y-7.3
X6.4Y-7.4
X6.4Y-7.5
X6.4Y-7.6
X6.4Y-7.7
X6.5Y-7.3
X6.5Y-7.4
X6.5Y-7.5
X6.5Y-7.6
X6.5Y-7.7
X6.6Y-7.3
X6.6Y-7.4
X6.6Y-7.5
X6.6Y-7.6
X6.6Y-7.7
X6.7Y-2.8
X6.7Y-2.9
X6.7Y-3.0
X6.7Y-3.1
X6.7Y-3.2
X6.8Y-2.8
X6.8Y-2.9
X6.8Y-3.0
X6.8Y-3.1
X6.8Y-3.2
X6.9Y-2.8
X6.9Y-2.9
X6.9Y-3.0
X6.9Y-3.1
X6.9Y-3.2
X7.0Y-2.8
X7.0Y-2.9
X7.0Y-3.0
X7.0Y-3.1
X7.0Y-3.2
X7.1Y-2.8
X7.1Y-2.9
X7.1Y-3.0
X7.1Y-3.1
X7.1Y-3.2
X4.7Y-2.3
X4.7Y-2.4
X4.7Y-2.5
X4.7Y-2.6
X4.7Y-2.7
X4.8Y-2.3
X4.8Y-2.4
X4.8Y-2.5
X4.8Y-2.6
X4.8Y-2.7
X4.9Y-2.3
X4.9Y-2.4
X4.9Y-2.5
X4.9Y-2.6
X4.9Y-2.7
X5.0Y-2.3
X5.0Y-2.4
X5.0Y-2.5
X5.0Y-2.6
X5.0Y-2.7
X5.1Y-2.3
X5.1Y-2.4
X5.1Y-2.5
X5.1Y-2.6
X5.1Y-2.7
X7.2Y-6.3
X7.2Y-6.4
X7.2Y-6.5
X7.2Y-6.6
X7.2Y-6.7
X7.3Y-6.3
X7.3Y-6.4
X7.3Y-6.5
X7.3Y-6.6
X7.3Y-6.7
X7.4Y-6.3
X7.4Y-6.4
X7.4Y-6.5
X7.4Y-6.6
X7.4Y-6.7
X7.5Y-6.3
X7.5Y-6.4
X7.5Y-6.5
X7.5Y-6.6
X7.5Y-6.7
X7.6Y-6.3
X7.6Y-6.4
X7.6Y-6.5
X7.6Y-6.6
X7.6Y-6.7
X1.7Y-4.3
X1.7Y-4.4
X1.7Y-4.5
X1.7Y-4.6
X1.7Y-4.7
X1.8Y-4.3
X1.8Y-4.4
X1.8Y-4.5
X1.8Y-4.6
X1.8Y-4.7
X1.9Y-4.3
X1.9Y-4.4
X1.9Y-4.5
X1.9Y-4.6
X1.9Y-4.7
X2.0Y-4.3
X2.0Y-4.4
X2.0Y-4.5
X2.0Y-4.6
X2.0Y-4.7
X2.1Y-4.3
X2.1Y-4.4
X2.1Y-4.5
X2.1Y-4.6
X2.1Y-4.7
X7.2Y-7.8
X7.2Y-7.9
X7.2Y-8.0
X7.2Y-8.1
X7.2Y-8.2
X7.3Y-7.8
X7.3Y-7.9
X7.3Y-8.0
X7.3Y-8.1
X7.3Y-8.2
X7.4Y-7.8
X7.4Y-7.9
X7.4Y-8.0
X7.4Y-8.1
X7.4Y-8.2
X7.5Y-7.8
X7.5Y-7.9
X7.5Y-8.0
X7.5Y-8.1
X7.5Y-8.2
X7.6Y-7.8
X7.6Y-7.9
X7.6Y-8.0
X7.6Y-8.1
X7.6Y-8.2
X6.2Y-5.3
X6.2Y-5.4
X6.2Y-5.5
X6.2Y-5.6
X6.2Y-5.7
X6.3Y-5.3
X6.3Y-5.4
X6.3Y-5.5
X6.3Y-5.6
X6.3Y-5.7
X6.4Y-5.3
X6.4Y-5.4
X6.4Y-5.5
X6.4Y-5.6
X6.4Y-5.7
X6.5Y-5.3
X6.5Y-5.4
X6.5Y-5.5
X6.5Y-5.6
X6.5Y-5.7
X6.6Y-5.3
X6.6Y-5.4
X6.6Y-5.5
X6.6Y-5.6
X6.6Y-5.7
X12.2Y-6.8
X12.2Y-6.9
X12.2Y-7.0
X12.2Y-7.1
X12.2Y-7.2
X12.3Y-6.8
X12.3Y-6.9
X12.3Y-7.0
X12.3Y-7.1
X12.3Y-7.2
X12.4Y-6.8
X12.4Y-6.9
X12.4Y-7.0
X12.4Y-7.1
X12.4Y-7.2
X12.5Y-6.8
X12.5Y-6.9
X12.5Y-7.0
X12.5Y-7.1
X12.5Y-7.2
X12.6Y-6.8
X12.6Y-6.9
X12.6Y-7.0
X12.6Y-7.1
X12.6Y-7.2
X1.2Y-6.3
X1.2Y-6.4
X1.2Y-6.5
X1.2Y-6.6
X1.2Y-6.7
X1.3Y-6.3
X1.3Y-6.4
X1.3Y-6.5
X1.3Y-6.6
X1.3Y-6.7
X1.4Y-6.3
X1.4Y-6.4
X1.4Y-6.5
X1.4Y-6.6
X1.4Y-6.7
X1.5Y-6.3
X1.5Y-6.4
X1.5Y-6.5
X1.5Y-6.6
X1.5Y-6.7
X1.6Y-6.3
X1.6Y-6.4
X1.6Y-6.5
X1.6Y-6.6
X1.6Y-6.7
X4.7Y-5.3
X4.7Y-5.4
X4.7Y-5.5
X4.7Y-5.6
X4.7Y-5.7
X4.8Y-5.3
X4.8Y-5.4
X4.8Y-5.5
X4.8Y-5.6
X4.8Y-5.7
X4.9Y-5.3
X4.9Y-5.4
X4.9Y-5.5
X4.9Y-5.6
X4.9Y-5.7
X5.0Y-5.3
X5.0Y-5.4
X5.0Y-5.5
X5.0Y-5.6
X5.0Y-5.7
X5.1Y-5.3
X5.1Y-5.4
X5.1Y-5.5
X5.1Y-5.6
X5.1Y-5.7
X8.2Y-2.8
X8.2Y-2.9
X8.2Y-3.0
X8.2Y-3.1
X8.2Y-3.2
X8.3Y-2.8
X8.3Y-2.9
X8.3Y-3.0
X8.3Y-3.1
X8.3Y-3.2
X8.4Y-2.8
X8.4Y-2.9
X8.4Y-3.0
X8.4Y-3.1
X8.4Y-3.2
X8.5Y-2.8
X8.5Y-2.9
X8.5Y-3.0
X8.5Y-3.1
X8.5Y-3.2
X8.6Y-2.8
X8.6Y-2.9
X8.6Y-3.0
X8.6Y-3.1
X8.6Y-3.2
X2.2Y-6.8
X2.2Y-6.9
X2.2Y-7.0
X2.2Y-7.1
X2.2Y-7.2
X2.3Y-6.8
X2.3Y-6.9
X2.3Y-7.0
X2.3Y-7.1
X2.3Y-7.2
X2.4Y-6.8
X2.4Y-6.9
X2.4Y-7.0
X2.4Y-7.1
X2.4Y-7.2
X2.5Y-6.8
X2.5Y-6.9
X2.5Y-7.0
X2.5Y-7.1
X2.5Y-7.2
X2.6Y-6.8
X2.6Y-6.9
X2.6Y-7.0
X2.6Y-7.1
X2.6Y-7.2
X10.7Y-2.8
X10.7Y-2.9
X10.7Y-3.0
X10.7Y-3.1
X10.7Y-3.2
X10.8Y-2.8
X10.8Y-2.9
X10.8Y-3.0
X10.8Y-3.1
X10.8Y-3.2
X10.9Y-2.8
X10.9Y-2.9
X10.9Y-3.0
X10.9Y-3.1
X10.9Y-3.2
X11.0Y-2.8
X11.0Y-2.9
X11.0Y-3.0
X11.0Y-3.1
X11.0Y-3.2
X11.1Y-2.8
X11.1Y-2.9
X11.1Y-3.0
X11.1Y-3.1
X11.1Y-3.2
X10.2Y-2.8
X10.2Y-2.9
X10.2Y-3.0
X10.2Y-3.1
X10.2Y-3.2
X10.3Y-2.8
X10.3Y-2.9
X10.3Y-3.0
X10.3Y-3.1
X10.3Y-3.2
X10.4Y-2.8
X10.4Y-2.9
X10.4Y-3.0
X10.4Y-3.1
X10.4Y-3.2
X10.5Y-2.8
X10.5Y-2.9
X10.5Y-3.0
X10.5Y-3.1
X10.5Y-3.2
X10.6Y-2.8
X10.6Y-2.9
X10.6Y-3.0
X10.6Y-3.1
X10.6Y-3.2
X8.2Y-4.3
X8.2Y-4.4
X8.2Y-4.5
X8.2Y-4.6
X8.2Y-4.7
X8.3Y-4.3
X8.3Y-4.4
X8.3Y-4.5
X8.3Y-4.6
X8.3Y-4.7
X8.4Y-4.3
X8.4Y-4.4
X8.4Y-4.5
X8.4Y-4.6
X8.4Y-4.7
X8.5Y-4.3
X8.5Y-4.4
X8.5Y-4.5
X8.5Y-4.6
X8.5Y-4.7
X8.6Y-4.3
X8.6Y-4.4
X8.6Y-4.5
X8.6Y-4.6
X8.6Y-4.7
X5.7Y-2.8
X5.7Y-2.9
X5.7Y-3.0
X5.7Y-3.1
X5.7Y-3.2
X5.8Y-2.8
X5.8Y-2.9
X5.8Y-3.0
X5.8Y-3.1
X5.8Y-3.2
X5.9Y-2.8
X5.9Y-2.9
X5.9Y-3.0
X5.9Y-3.1
X5.9Y-3.2
X6.0Y-2.8
X6.0Y-2.9
X6.0Y-3.0
X6.0Y-3.1
X6.0Y-3.2
X6.1Y-2.8
X6.1Y-2.9
X6.1Y-3.0
X6.1Y-3.1
X6.1Y-3.2
X4.7Y-6.8
X4.7Y-6.9
X4.7Y-7.0
X4.7Y-7.1
X4.7Y-7.2
X4.8Y-6.8
X4.8Y-6.9
X4.8Y-7.0
X4.8Y-7.1
X4.8Y-7.2
X4.9Y-6.8
X4.9Y-6.9
X4.9Y-7.0
X4.9Y-7.1
X4.9Y-7.2
X5.0Y-6.8
X5.0Y-6.9
X5.0Y-7.0
X5.0Y-7.1
X5.0Y-7.2
X5.1Y-6.8
X5.1Y-6.9
X5.1Y-7.0
X5.1Y-7.1
X5.1Y-7.2
X3.2Y-1.8
X3.2Y-1.9
X3.2Y-2.0
X3.2Y-2.1
X3.2Y-2.2
X3.3Y-1.8
X3.3Y-1.9
X3.3Y-2.0
X3.3Y-2.1
X3.3Y-2.2
X3.4Y-1.8
X3.4Y-1.9
X3.4Y-2.0
X3.4Y-2.1
X3.4Y-2.2
X3.5Y-1.8
X3.5Y-1.9
X3.5Y-2.0
X3.5Y-2.1
X3.5Y-2.2
X3.6Y-1.8
X3.6Y-1.9
X3.6Y-2.0
X3.6Y-2.1
X3.6Y-2.2
X1.2Y-3.3
X1.2Y-3.4
X1.2Y-3.5
X1.2Y-3.6
X1.2Y-3.7
X1.3Y-3.3
X1.3Y-3.4
X1.3Y-3.5
X1.3Y-3.6
X1.3Y-3.7
X1.4Y-3.3
X1.4Y-3.4
X1.4Y-3.5
X1.4Y-3.6
X1.4Y-3.7
X1.5Y-3.3
X1.5Y-3.4
X1.5Y-3.5
X1.5Y-3.6
X1.5Y-3.7
X1.6Y-3.3
X1.6Y-3.4
X1.6Y-3.5
X1.6Y-3.6
X1.6Y-3.7
X6.2Y-4.8
X6.2Y-4.9
X6.2Y-5.0
X6.2Y-5.1
X6.2Y-5.2
X6.3Y-4.8
X6.3Y-4.9
X6.3Y-5.0
X6.3Y-5.1
X6.3Y-5.2
X6.4Y-4.8
X6.4Y-4.9
X6.4Y-5.0
X6.4Y-5.1
X6.4Y-5.2
X6.5Y-4.8
X6.5Y-4.9
X6.5Y-5.0
X6.5Y-5.1
X6.5Y-5.2
X6.6Y-4.8
X6.6Y-4.9
X6.6Y-5.0
X6.6Y-5.1
X6.6Y-5.2
X9.2Y-2.3
X9.2Y-2.4
X9.2Y-2.5
X9.2Y-2.6
X9.2Y-2.7
X9.3Y-2.3
X9.3Y-2.4
X9.3Y-2.5
X9.3Y-2.6
X9.3Y-2.7
X9.4Y-2.3
X9.4Y-2.4
X9.4Y-2.5
X9.4Y-2.6
X9.4Y-2.7
X9.5Y-2.3
X9.5Y-2.4
X9.5Y-2.5
X9.5Y-2.6
X9.5Y-2.7
X9.6Y-2.3
X9.6Y-2.4
X9.6Y-2.5
X9.6Y-2.6
X9.6Y-2.7
X1.2Y-4.8
X1.2Y-4.9
X1.2Y-5.0
X1.2Y-5.1
X1.2Y-5.2
X1.3Y-4.8
X1.3Y-4.9
X1.3Y-5.0
X1.3Y-5.1
X1.3Y-5.2
X1.4Y-4.8
X1.4Y-4.9
X1.4Y-5.0
X1.4Y-5.1
X1.4Y-5.2
X1.5Y-4.8
X1.5Y-4.9
X1.5Y-5.0
X1.5Y-5.1
X1.5Y-5.2
X1.6Y-4.8
X1.6Y-4.9
X1.6Y-5.0
X1.6Y-5.1
X1.6Y-5.2
X7.7Y-5.3
X7.7Y-5.4
X7.7Y-5.5
X7.7Y-5.6
X7.7Y-5.7
X7.8Y-5.3
X7.8Y-5.4
X7.8Y-5.5
X7.8Y-5.6
X7.8Y-5.7
X7.9Y-5.3
X7.9Y-5.4
X7.9Y-5.5
X7.9Y-5.6
X7.9Y-5.7
X8.0Y-5.3
X8.0Y-5.4
X8.0Y-5.5
X8.0Y-5.6
X8.0Y-5.7
X8.1Y-5.3
X8.1Y-5.4
X8.1Y-5.5
X8.1Y-5.6
X8.1Y-5.7
X7.2Y-5.3
X7.2Y-5.4
X7.2Y-5.5
X7.2Y-5.6
X7.2Y-5.7
X7.3Y-5.3
X7.3Y-5.4
X7.3Y-5.5
X7.3Y-5.6
X7.3Y-5.7
X7.4Y-5.3
X7.4Y-5.4
X7.4Y-5.5
X7.4Y-5.6
X7.4Y-5.7
X7.5Y-5.3
X7.5Y-5.4
X7.5Y-5.5
X7.5Y-5.6
X7.5Y-5.7
X7.6Y-5.3
X7.6Y-5.4
X7.6Y-5.5
X7.6Y-5.6
X7.6Y-5.7
X7.7Y-4.8
X7.7Y-4.9
X7.7Y-5.0
X7.7Y-5.1
X7.7Y-5.2
X7.8Y-4.8
X7.8Y-4.9
X7.8Y-5.0
X7.8Y-5.1
X7.8Y-5.2
X7.9Y-4.8
X7.9Y-4.9
X7.9Y-5.0
X7.9Y-5.1
X7.9Y-5.2
X8.0Y-4.8
X8.0Y-4.9
X8.0Y-5.0
X8.0Y-5.1
X8.0Y-5.2
X8.1Y-4.8
X8.1Y-4.9
X8.1Y-5.0
X8.1Y-5.1
X8.1Y-5.2
X2.7Y-6.3
X2.7Y-6.4
X2.7Y-6.5
X2.7Y-6.6
X2.7Y-6.7
X2.8Y-6.3
X2.8Y-6.4
X2.8Y-6.5
X2.8Y-6.6
X2.8Y-6.7
X2.9Y-6.3
X2.9Y-6.4
X2.9Y-6.5
X2.9Y-6.6
X2.9Y-6.7
X3.0Y-6.3
X3.0Y-6.4
X3.0Y-6.5
X3.0Y-6.6
X3.0Y-6.7
X3.1Y-6.3
X3.1Y-6.4
X3.1Y-6.5
X3.1Y-6.6
X3.1Y-6.7
X2.7Y-4.3
X2.7Y-4.4
X2.7Y-4.5
X2.7Y-4.6
X2.7Y-4.7
X2.8Y-4.3
X2.8Y-4.4
X2.8Y-4.5
X2.8Y-4.6
X2.8Y-4.7
X2.9Y-4.3
X2.9Y-4.4
X2.9Y-4.5
X2.9Y-4.6
X2.9Y-4.7
X3.0Y-4.3
X3.0Y-4.4
X3.0Y-4.5
X3.0Y-4.6
X3.0Y-4.7
X3.1Y-4.3
X3.1Y-4.4
X3.1Y-4.5
X3.1Y-4.6
X3.1Y-4.7
X9.2Y-3.3
X9.2Y-3.4
X9.2Y-3.5
X9.2Y-3.6
X9.2Y-3.7
X9.3Y-3.3
X9.3Y-3.4
X9.3Y-3.5
X9.3Y-3.6
X9.3Y-3.7
X9.4Y-3.3
X9.4Y-3.4
X9.4Y-3.5
X9.4Y-3.6
X9.4Y-3.7
X9.5Y-3.3
X9.5Y-3.4
X9.5Y-3.5
X9.5Y-3.6
X9.5Y-3.7
X9.6Y-3.3
X9.6Y-3.4
X9.6Y-3.5
X9.6Y-3.6
X9.6Y-3.7
X5.2Y-2.3
X5.2Y-2.4
X5.2Y-2.5
X5.2Y-2.6
X5.2Y-2.7
X5.3Y-2.3
X5.3Y-2.4
X5.3Y-2.5
X5.3Y-2.6
X5.3Y-2.7
X5.4Y-2.3
X5.4Y-2.4
X5.4Y-2.5
X5.4Y-2.6
X5.4Y-2.7
X5.5Y-2.3
X5.5Y-2.4
X5.5Y-2.5
X5.5Y-2.6
X5.5Y-2.7
X5.6Y-2.3
X5.6Y-2.4
X5.6Y-2.5
X5.6Y-2.6
X5.6Y-2.7
X5.7Y-6.8
X5.7Y-6.9
X5.7Y-7.0
X5.7Y-7.1
X5.7Y-7.2
X5.8Y-6.8
X5.8Y-6.9
X5.8Y-7.0
X5.8Y-7.1
X5.8Y-7.2
X5.9Y-6.8
X5.9Y-6.9
X5.9Y-7.0
X5.9Y-7.1
X5.9Y-7.2
X6.0Y-6.8
X6.0Y-6.9
X6.0Y-7.0
X6.0Y-7.1
X6.0Y-7.2
X6.1Y-6.8
X6.1Y-6.9
X6.1Y-7.0
X6.1Y-7.1
X6.1Y-7.2
X4.2Y-6.8
X4.2Y-6.9
X4.2Y-7.0
X4.2Y-7.1
X4.2Y-7.2
X4.3Y-6.8
X4.3Y-6.9
X4.3Y-7.0
X4.3Y-7.1
X4.3Y-7.2
X4.4Y-6.8
X4.4Y-6.9
X4.4Y-7.0
X4.4Y-7.1
X4.4Y-7.2
X4.5Y-6.8
X4.5Y-6.9
X4.5Y-7.0
X4.5Y-7.1
X4.5Y-7.2
X4.6Y-6.8
X4.6Y-6.9
X4.6Y-7.0
X4.6Y-7.1
X4.6Y-7.2
X4.2Y-3.8
X4.2Y-3.9
X4.2Y-4.0
X4.2Y-4.1
X4.2Y-4.2
X4.3Y-3.8
X4.3Y-3.9
X4.3Y-4.0
X4.3Y-4.1
X4.3Y-4.2
X4.4Y-3.8
X4.4Y-3.9
X4.4Y-4.0
X4.4Y-4.1
X4.4Y-4.2
X4.5Y-3.8
X4.5Y-3.9
X4.5Y-4.0
X4.5Y-4.1
X4.5Y-4.2
X4.6Y-3.8
X4.6Y-3.9
X4.6Y-4.0
X4.6Y-4.1
X4.6Y-4.2
X10.2Y-5.3
X10.2Y-5.4
X10.2Y-5.5
X10.2Y-5.6
X10.2Y-5.7
X10.3Y-5.3
X10.3Y-5.4
X10.3Y-5.5
X10.3Y-5.6
X10.3Y-5.7
X10.4Y-5.3
X10.4Y-5.4
X10.4Y-5.5
X10.4Y-5.6
X10.4Y-5.7
X10.5Y-5.3
X10.5Y-5.4
X10.5Y-5.5
X10.5Y-5.6
X10.5Y-5.7
X10.6Y-5.3
X10.6Y-5.4
X10.6Y-5.5
X10.6Y-5.6
X10.6Y-5.7
X10.2Y-4.8
X10.2Y-4.9
X10.2Y-5.0
X10.2Y-5.1
X10.2Y-5.2
X10.3Y-4.8
X10.3Y-4.9
X10.3Y-5.0
X10.3Y-5.1
X10.3Y-5.2
X10.4Y-4.8
X10.4Y-4.9
X10.4Y-5.0
X10.4Y-5.1
X10.4Y-5.2
X10.5Y-4.8
X10.5Y-4.9
X10.5Y-5.0
X10.5Y-5.1
X10.5Y-5.2
X10.6Y-4.8
X10.6Y-4.9
X10.6Y-5.0
X10.6Y-5.1
X10.6Y-5.2
X8.2Y-7.8
X8.2Y-7.9
X8.2Y-8.0
X8.2Y-8.1
X8.2Y-8.2
X8.3Y-7.8
X8.3Y-7.9
X8.3Y-8.0
X8.3Y-8.1
X8.3Y-8.2
X8.4Y-7.8
X8.4Y-7.9
X8.4Y-8.0
X8.4Y-8.1
X8.4Y-8.2
X8.5Y-7.8
X8.5Y-7.9
X8.5Y-8.0
X8.5Y-8.1
X8.5Y-8.2
X8.6Y-7.8
X8.6Y-7.9
X8.6Y-8.0
X8.6Y-8.1
X8.6Y-8.2
X7.2Y-2.8
X7.2Y-2.9
X7.2Y-3.0
X7.2Y-3.1
X7.2Y-3.2
X7.3Y-2.8
X7.3Y-2.9
X7.3Y-3.0
X7.3Y-3.1
X7.3Y-3.2
X7.4Y-2.8
X7.4Y-2.9
X7.4Y-3.0
X7.4Y-3.1
X7.4Y-3.2
X7.5Y-2.8
X7.5Y-2.9
X7.5Y-3.0
X7.5Y-3.1
X7.5Y-3.2
X7.6Y-2.8
X7.6Y-2.9
X7.6Y-3.0
X7.6Y-3.1
X7.6Y-3.2
X8.7Y-4.3
X8.7Y-4.4
X8.7Y-4.5
X8.7Y-4.6
X8.7Y-4.7
X8.8Y-4.3
X8.8Y-4.4
X8.8Y-4.5
X8.8Y-4.6
X8.8Y-4.7
X8.9Y-4.3
X8.9Y-4.4
X8.9Y-4.5
X8.9Y-4.6
X8.9Y-4.7
X9.0Y-4.3
X9.0Y-4.4
X9.0Y-4.5
X9.0Y-4.6
X9.0Y-4.7
X9.1Y-4.3
X9.1Y-4.4
X9.1Y-4.5
X9.1Y-4.6
X9.1Y-4.7
X2.2Y-7.8
X2.2Y-7.9
X2.2Y-8.0
X2.2Y-8.1
X2.2Y-8.2
X2.3Y-7.8
X2.3Y-7.9
X2.3Y-8.0
X2.3Y-8.1
X2.3Y-8.2
X2.4Y-7.8
X2.4Y-7.9
X2.4Y-8.0
X2.4Y-8.1
X2.4Y-8.2
X2.5Y-7.8
X2.5Y-7.9
X2.5Y-8.0
X2.5Y-8.1
X2.5Y-8.2
X2.6Y-7.8
X2.6Y-7.9
X2.6Y-8.0
X2.6Y-8.1
X2.6Y-8.2
X6.7Y-3.3
X6.7Y-3.4
X6.7Y-3.5
X6.7Y-3.6
X6.7Y-3.7
X6.8Y-3.3
X6.8Y-3.4
X6.8Y-3.5
X6.8Y-3.6
X6.8Y-3.7
X6.9Y-3.3
X6.9Y-3.4
X6.9Y-3.5
X6.9Y-3.6
X6.9Y-3.7
X7.0Y-3.3
X7.0Y-3.4
X7.0Y-3.5
X7.0Y-3.6
X7.0Y-3.7
X7.1Y-3.3
X7.1Y-3.4
X7.1Y-3.5
X7.1Y-3.6
X7.1Y-3.7
X8.7Y-5.8
X8.7Y-5.9
X8.7Y-6.0
X8.7Y-6.1
X8.7Y-6.2
X8.8Y-5.8
X8.8Y-5.9
X8.8Y-6.0
X8.8Y-6.1
X8.8Y-6.2
X8.9Y-5.8
X8.9Y-5.9
X8.9Y-6.0
X8.9Y-6.1
X8.9Y-6.2
X9.0Y-5.8
X9.0Y-5.9
X9.0Y-6.0
X9.0Y-6.1
X9.0Y-6.2
X9.1Y-5.8
X9.1Y-5.9
X9.1Y-6.0
X9.1Y-6.1
X9.1Y-6.2
X3.2Y-3.8
X3.2Y-3.9
X3.2Y-4.0
X3.2Y-4.1
X3.2Y-4.2
X3.3Y-3.8
X3.3Y-3.9
X3.3Y-4.0
X3.3Y-4.1
X3.3Y-4.2
X3.4Y-3.8
X3.4Y-3.9
X3.4Y-4.0
X3.4Y-4.1
X3.4Y-4.2
X3.5Y-3.8
X3.5Y-3.9
X3.5Y-4.0
X3.5Y-4.1
X3.5Y-4.2
X3.6Y-3.8
X3.6Y-3.9
X3.6Y-4.0
X3.6Y-4.1
X3.6Y-4.2
X3.2Y-2.8
X3.2Y-2.9
X3.2Y-3.0
X3.2Y-3.1
X3.2Y-3.2
X3.3Y-2.8
X3.3Y-2.9
X3.3Y-3.0
X3.3Y-3.1
X3.3Y-3.2
X3.4Y-2.8
X3.4Y-2.9
X3.4Y-3.0
X3.4Y-3.1
X3.4Y-3.2
X3.5Y-2.8
X3.5Y-2.9
X3.5Y-3.0
X3.5Y-3.1
X3.5Y-3.2
X3.6Y-2.8
X3.6Y-2.9
X3.6Y-3.0
X3.6Y-3.1
X3.6Y-3.2
X4.2Y-5.3
X4.2Y-5.4
X4.2Y-5.5
X4.2Y-5.6
X4.2Y-5.7
X4.3Y-5.3
X4.3Y-5.4
X4.3Y-5.5
X4.3Y-5.6
X4.3Y-5.7
X4.4Y-5.3
X4.4Y-5.4
X4.4Y-5.5
X4.4Y-5.6
X4.4Y-5.7
X4.5Y-5.3
X4.5Y-5.4
X4.5Y-5.5
X4.5Y-5.6
X4.5Y-5.7
X4.6Y-5.3
X4.6Y-5.4
X4.6Y-5.5
X4.6Y-5.6
X4.6Y-5.7
X4.2Y-3.3
X4.2Y-3.4
X4.2Y-3.5
X4.2Y-3.6
X4.2Y-3.7
X4.3Y-3.3
X4.3Y-3.4
X4.3Y-3.5
X4.3Y-3.6
X4.3Y-3.7
X4.4Y-3.3
X4.4Y-3.4
X4.4Y-3.5
X4.4Y-3.6
X4.4Y-3.7
X4.5Y-3.3
X4.5Y-3.4
X4.5Y-3.5
X4.5Y-3.6
X4.5Y-3.7
X4.6Y-3.3
X4.6Y-3.4
X4.6Y-3.5
X4.6Y-3.6
X4.6Y-3.7
X2.7Y-2.3
X2.7Y-2.4
X2.7Y-2.5
X2.7Y-2.6
X2.7Y-2.7
X2.8Y-2.3
X2.8Y-2.4
X2.8Y-2.5
X2.8Y-2.6
X2.8Y-2.7
X2.9Y-2.3
X2.9Y-2.4
X2.9Y-2.5
X2.9Y-2.6
X2.9Y-2.7
X3.0Y-2.3
X3.0Y-2.4
X3.0Y-2.5
X3.0Y-2.6
X3.0Y-2.7
X3.1Y-2.3
X3.1Y-2.4
X3.1Y-2.5
X3.1Y-2.6
X3.1Y-2.7
X9.7Y-3.3
X9.7Y-3.4
X9.7Y-3.5
X9.7Y-3.6
X9.7Y-3.7
X9.8Y-3.3
X9.8Y-3.4
X9.8Y-3.5
X9.8Y-3.6
X9.8Y-3.7
X9.9Y-3.3
X9.9Y-3.4
X9.9Y-3.5
X9.9Y-3.6
X9.9Y-3.7
X10.0Y-3.3
X10.0Y-3.4
X10.0Y-3.5
X10.0Y-3.6
X10.0Y-3.7
X10.1Y-3.3
X10.1Y-3.4
X10.1Y-3.5
X10.1Y-3.6
X10.1Y-3.7
X5.2Y-5.8
X5.2Y-5.9
X5.2Y-6.0
X5.2Y-6.1
X5.2Y-6.2
X5.3Y-5.8
X5.3Y-5.9
X5.3Y-6.0
X5.3Y-6.1
X5.3Y-6.2
X5.4Y-5.8
X5.4Y-5.9
X5.4Y-6.0
X5.4Y-6.1
X5.4Y-6.2
X5.5Y-5.8
X5.5Y-5.9
X5.5Y-6.0
X5.5Y-6.1
X5.5Y-6.2
X5.6Y-5.8
X5.6Y-5.9
X5.6Y-6.0
X5.6Y-6.1
X5.6Y-6.2
X4.2Y-7.3
X4.2Y-7.4
X4.2Y-7.5
X4.2Y-7.6
X4.2Y-7.7
X4.3Y-7.3
X4.3Y-7.4
X4.3Y-7.5
X4.3Y-7.6
X4.3Y-7.7
X4.4Y-7.3
X4.4Y-7.4
X4.4Y-7.5
X4.4Y-7.6
X4.4Y-7.7
X4.5Y-7.3
X4.5Y-7.4
X4.5Y-7.5
X4.5Y-7.6
X4.5Y-7.7
X4.6Y-7.3
X4.6Y-7.4
X4.6Y-7.5
X4.6Y-7.6
X4.6Y-7.7
X1.7Y-5.8
X1.7Y-5.9
X1.7Y-6.0
X1.7Y-6.1
X1.7Y-6.2
X1.8Y-5.8
X1.8Y-5.9
X1.8Y-6.0
X1.8Y-6.1
X1.8Y-6.2
X1.9Y-5.8
X1.9Y-5.9
X1.9Y-6.0
X1.9Y-6.1
X1.9Y-6.2
X2.0Y-5.8
X2.0Y-5.9
X2.0Y-6.0
X2.0Y-6.1
X2.0Y-6.2
X2.1Y-5.8
X2.1Y-5.9
X2.1Y-6.0
X2.1Y-6.1
X2.1Y-6.2
X1.7Y-1.8
X1.7Y-1.9
X1.7Y-2.0
X1.7Y-2.1
X1.7Y-2.2
X1.8Y-1.8
X1.8Y-1.9
X1.8Y-2.0
X1.8Y-2.1
X1.8Y-2.2
X1.9Y-1.8
X1.9Y-1.9
X1.9Y-2.0
X1.9Y-2.1
X1.9Y-2.2
X2.0Y-1.8
X2.0Y-1.9
X2.0Y-2.0
X2.0Y-2.1
X2.0Y-2.2
X2.1Y-1.8
X2.1Y-1.9
X2.1Y-2.0
X2.1Y-2.1
X2.1Y-2.2
X10.7Y-4.3
X10.7Y-4.4
X10.7Y-4.5
X10.7Y-4.6
X10.7Y-4.7
X10.8Y-4.3
X10.8Y-4.4
X10.8Y-4.5
X10.8Y-4.6
X10.8Y-4.7
X10.9Y-4.3
X10.9Y-4.4
X10.9Y-4.5
X10.9Y-4.6
X10.9Y-4.7
X11.0Y-4.3
X11.0Y-4.4
X11.0Y-4.5
X11.0Y-4.6
X11.0Y-4.7
X11.1Y-4.3
X11.1Y-4.4
X11.1Y-4.5
X11.1Y-4.6
X11.1Y-4.7
X5.2Y-3.3
X5.2Y-3.4
X5.2Y-3.5
X5.2Y-3.6
X5.2Y-3.7
X5.3Y-3.3
X5.3Y-3.4
X5.3Y-3.5
X5.3Y-3.6
X5.3Y-3.7
X5.4Y-3.3
X5.4Y-3.4
X5.4Y-3.5
X5.4Y-3.6
X5.4Y-3.7
X5.5Y-3.3
X5.5Y-3.4
X5.5Y-3.5
X5.5Y-3.6
X5.5Y-3.7
X5.6Y-3.3
X5.6Y-3.4
X5.6Y-3.5
X5.6Y-3.6
X5.6Y-3.7
X8.2Y-7.3
X8.2Y-7.4
X8.2Y-7.5
X8.2Y-7.6
X8.2Y-7.7
X8.3Y-7.3
X8.3Y-7.4
X8.3Y-7.5
X8.3Y-7.6
X8.3Y-7.7
X8.4Y-7.3
X8.4Y-7.4
X8.4Y-7.5
X8.4Y-7.6
X8.4Y-7.7
X8.5Y-7.3
X8.5Y-7.4
X8.5Y-7.5
X8.5Y-7.6
X8.5Y-7.7
X8.6Y-7.3
X8.6Y-7.4
X8.6Y-7.5
X8.6Y-7.6
X8.6Y-7.7
X2.2Y-1.8
X2.2Y-1.9
X2.2Y-2.0
X2.2Y-2.1
X2.2Y-2.2
X2.3Y-1.8
X2.3Y-1.9
X2.3Y-2.0
X2.3Y-2.1
X2.3Y-2.2
X2.4Y-1.8
X2.4Y-1.9
X2.4Y-2.0
X2.4Y-2.1
X2.4Y-2.2
X2.5Y-1.8
X2.5Y-1.9
X2.5Y-2.0
X2.5Y-2.1
X2.5Y-2.2
X2.6Y-1.8
X2.6Y-1.9
X2.6Y-2.0
X2.6Y-2.1
X2.6Y-2.2
X1.7Y-2.8
X1.7Y-2.9
X1.7Y-3.0
X1.7Y-3.1
X1.7Y-3.2
X1.8Y-2.8
X1.8Y-2.9
X1.8Y-3.0
X1.8Y-3.1
X1.8Y-3.2
X1.9Y-2.8
X1.9Y-2.9
X1.9Y-3.0
X1.9Y-3.1
X1.9Y-3.2
X2.0Y-2.8
X2.0Y-2.9
X2.0Y-3.0
X2.0Y-3.1
X2.0Y-3.2
X2.1Y-2.8
X2.1Y-2.9
X2.1Y-3.0
X2.1Y-3.1
X2.1Y-3.2
X9.7Y-7.3
X9.7Y-7.4
X9.7Y-7.5
X9.7Y-7.6
X9.7Y-7.7
X9.8Y-7.3
X9.8Y-7.4
X9.8Y-7.5
X9.8Y-7.6
X9.8Y-7.7
X9.9Y-7.3
X9.9Y-7.4
X9.9Y-7.5
X9.9Y-7.6
X9.9Y-7.7
X10.0Y-7.3
X10.0Y-7.4
X10.0Y-7.5
X10.0Y-7.6
X10.0Y-7.7
X10.1Y-7.3
X10.1Y-7.4
X10.1Y-7.5
X10.1Y-7.6
X10.1Y-7.7
X8.7Y-3.3
X8.7Y-3.4
X8.7Y-3.5
X8.7Y-3.6
X8.7Y-3.7
X8.8Y-3.3
X8.8Y-3.4
X8.8Y-3.5
X8.8Y-3.6
X8.8Y-3.7
X8.9Y-3.3
X8.9Y-3.4
X8.9Y-3.5
X8.9Y-3.6
X8.9Y-3.7
X9.0Y-3.3
X9.0Y-3.4
X9.0Y-3.5
X9.0Y-3.6
X9.0Y-3.7
X9.1Y-3.3
X9.1Y-3.4
X9.1Y-3.5
X9.1Y-3.6
X9.1Y-3.7
X8.7Y-2.8
X8.7Y-2.9
X8.7Y-3.0
X8.7Y-3.1
X8.7Y-3.2
X8.8Y-2.8
X8.8Y-2.9
X8.8Y-3.0
X8.8Y-3.1
X8.8Y-3.2
X8.9Y-2.8
X8.9Y-2.9
X8.9Y-3.0
X8.9Y-3.1
X8.9Y-3.2
X9.0Y-2.8
X9.0Y-2.9
X9.0Y-3.0
X9.0Y-3.1
X9.0Y-3.2
X9.1Y-2.8
X9.1Y-2.9
X9.1Y-3.0
X9.1Y-3.1
X9.1Y-3.2
X6.2Y-2.8
X6.2Y-2.9
X6.2Y-3.0
X6.2Y-3.1
X6.2Y-3.2
X6.3Y-2.8
X6.3Y-2.9
X6.3Y-3.0
X6.3Y-3.1
X6.3Y-3.2
X6.4Y-2.8
X6.4Y-2.9
X6.4Y-3.0
X6.4Y-3.1
X6.4Y-3.2
X6.5Y-2.8
X6.5Y-2.9
X6.5Y-3.0
X6.5Y-3.1
X6.5Y-3.2
X6.6Y-2.8
X6.6Y-2.9
X6.6Y-3.0
X6.6Y-3.1
X6.6Y-3.2
X4.2Y-6.3
X4.2Y-6.4
X4.2Y-6.5
X4.2Y-6.6
X4.2Y-6.7
X4.3Y-6.3
X4.3Y-6.4
X4.3Y-6.5
X4.3Y-6.6
X4.3Y-6.7
X4.4Y-6.3
X4.4Y-6.4
X4.4Y-6.5
X4.4Y-6.6
X4.4Y-6.7
X4.5Y-6.3
X4.5Y-6.4
X4.5Y-6.5
X4.5Y-6.6
X4.5Y-6.7
X4.6Y-6.3
X4.6Y-6.4
X4.6Y-6.5
X4.6Y-6.6
X4.6Y-6.7
X12.2Y-5.3
X12.2Y-5.4
X12.2Y-5.5
X12.2Y-5.6
X12.2Y-5.7
X12.3Y-5.3
X12.3Y-5.4
X12.3Y-5.5
X12.3Y-5.6
X12.3Y-5.7
X12.4Y-5.3
X12.4Y-5.4
X12.4Y-5.5
X12.4Y-5.6
X12.4Y-5.7
X12.5Y-5.3
X12.5Y-5.4
X12.5Y-5.5
X12.5Y-5.6
X12.5Y-5.7
X12.6Y-5.3
X12.6Y-5.4
X12.6Y-5.5
X12.6Y-5.6
X12.6Y-5.7
X2.7Y-5.8
X2.7Y-5.9
X2.7Y-6.0
X2.7Y-6.1
X2.7Y-6.2
X2.8Y-5.8
X2.8Y-5.9
X2.8Y-6.0
X2.8Y-6.1
X2.8Y-6.2
X2.9Y-5.8
X2.9Y-5.9
X2.9Y-6.0
X2.9Y-6.1
X2.9Y-6.2
X3.0Y-5.8
X3.0Y-5.9
X3.0Y-6.0
X3.0Y-6.1
X3.0Y-6.2
X3.1Y-5.8
X3.1Y-5.9
X3.1Y-6.0
X3.1Y-6.1
X3.1Y-6.2
X2.7Y-5.3
X2.7Y-5.4
X2.7Y-5.5
X2.7Y-5.6
X2.7Y-5.7
X2.8Y-5.3
X2.8Y-5.4
X2.8Y-5.5
X2.8Y-5.6
X2.8Y-5.7
X2.9Y-5.3
X2.9Y-5.4
X2.9Y-5.5
X2.9Y-5.6
X2.9Y-5.7
X3.0Y-5.3
X3.0Y-5.4
X3.0Y-5.5
X3.0Y-5.6
X3.0Y-5.7
X3.1Y-5.3
X3.1Y-5.4
X3.1Y-5.5
X3.1Y-5.6
X3.1Y-5.7
X1.7Y-2.3
X1.7Y-2.4
X1.7Y-2.5
X1.7Y-2.6
X1.7Y-2.7
X1.8Y-2.3
X1.8Y-2.4
X1.8Y-2.5
X1.8Y-2.6
X1.8Y-2.7
X1.9Y-2.3
X1.9Y-2.4
X1.9Y-2.5
X1.9Y-2.6
X1.9Y-2.7
X2.0Y-2.3
X2.0Y-2.4
X2.0Y-2.5
X2.0Y-2.6
X2.0Y-2.7
X2.1Y-2.3
X2.1Y-2.4
X2.1Y-2.5
X2.1Y-2.6
X2.1Y-2.7
X9.2Y-4.3
X9.2Y-4.4
X9.2Y-4.5
X9.2Y-4.6
X9.2Y-4.7
X9.3Y-4.3
X9.3Y-4.4
X9.3Y-4.5
X9.3Y-4.6
X9.3Y-4.7
X9.4Y-4.3
X9.4Y-4.4
X9.4Y-4.5
X9.4Y-4.6
X9.4Y-4.7
X9.5Y-4.3
X9.5Y-4.4
X9.5Y-4.5
X9.5Y-4.6
X9.5Y-4.7
X9.6Y-4.3
X9.6Y-4.4
X9.6Y-4.5
X9.6Y-4.6
X9.6Y-4.7
X6.2Y-5.8
X6.2Y-5.9
X6.2Y-6.0
X6.2Y-6.1
X6.2Y-6.2
X6.3Y-5.8
X6.3Y-5.9
X6.3Y-6.0
X6.3Y-6.1
X6.3Y-6.2
X6.4Y-5.8
X6.4Y-5.9
X6.4Y-6.0
X6.4Y-6.1
X6.4Y-6.2
X6.5Y-5.8
X6.5Y-5.9
X6.5Y-6.0
X6.5Y-6.1
X6.5Y-6.2
X6.6Y-5.8
X6.6Y-5.9
X6.6Y-6.0
X6.6Y-6.1
X6.6Y-6.2
X5.7Y-6.3
X5.7Y-6.4
X5.7Y-6.5
X5.7Y-6.6
X5.7Y-6.7
X5.8Y-6.3
X5.8Y-6.4
X5.8Y-6.5
X5.8Y-6.6
X5.8Y-6.7
X5.9Y-6.3
X5.9Y-6.4
X5.9Y-6.5
X5.9Y-6.6
X5.9Y-6.7
X6.0Y-6.3
X6.0Y-6.4
X6.0Y-6.5
X6.0Y-6.6
X6.0Y-6.7
X6.1Y-6.3
X6.1Y-6.4
X6.1Y-6.5
X6.1Y-6.6
X6.1Y-6.7
X5.7Y-4.3
X5.7Y-4.4
X5.7Y-4.5
X5.7Y-4.6
X5.7Y-4.7
X5.8Y-4.3
X5.8Y-4.4
X5.8Y-4.5
X5.8Y-4.6
X5.8Y-4.7
X5.9Y-4.3
X5.9Y-4.4
X5.9Y-4.5
X5.9Y-4.6
X5.9Y-4.7
X6.0Y-4.3
X6.0Y-4.4
X6.0Y-4.5
X6.0Y-4.6
X6.0Y-4.7
X6.1Y-4.3
X6.1Y-4.4
X6.1Y-4.5
X6.1Y-4.6
X6.1Y-4.7
X11.7Y-4.3
X11.7Y-4.4
X11.7Y-4.5
X11.7Y-4.6
X11.7Y-4.7
X11.8Y-4.3
X11.8Y-4.4
X11.8Y-4.5
X11.8Y-4.6
X11.8Y-4.7
X11.9Y-4.3
X11.9Y-4.4
X11.9Y-4.5
X11.9Y-4.6
X11.9Y-4.7
X12.0Y-4.3
X12.0Y-4.4
X12.0Y-4.5
X12.0Y-4.6
X12.0Y-4.7
X12.1Y-4.3
X12.1Y-4.4
X12.1Y-4.5
X12.1Y-4.6
X12.1Y-4.7
X7.2Y-4.8
X7.2Y-4.9
X7.2Y-5.0
X7.2Y-5.1
X7.2Y-5.2
X7.3Y-4.8
X7.3Y-4.9
X7.3Y-5.0
X7.3Y-5.1
X7.3Y-5.2
X7.4Y-4.8
X7.4Y-4.9
X7.4Y-5.0
X7.4Y-5.1
X7.4Y-5.2
X7.5Y-4.8
X7.5Y-4.9
X7.5Y-5.0
X7.5Y-5.1
X7.5Y-5.2
X7.6Y-4.8
X7.6Y-4.9
X7.6Y-5.0
X7.6Y-5.1
X7.6Y-5.2
X7.7Y-5.8
X7.7Y-5.9
X7.7Y-6.0
X7.7Y-6.1
X7.7Y-6.2
X7.8Y-5.8
X7.8Y-5.9
X7.8Y-6.0
X7.8Y-6.1
X7.8Y-6.2
X7.9Y-5.8
X7.9Y-5.9
X7.9Y-6.0
X7.9Y-6.1
X7.9Y-6.2
X8.0Y-5.8
X8.0Y-5.9
X8.0Y-6.0
X8.0Y-6.1
X8.0Y-6.2
X8.1Y-5.8
X8.1Y-5.9
X8.1Y-6.0
X8.1Y-6.1
X8.1Y-6.2
X3.2Y-4.8
X3.2Y-4.9
X3.2Y-5.0
X3.2Y-5.1
X3.2Y-5.2
X3.3Y-4.8
X3.3Y-4.9
X3.3Y-5.0
X3.3Y-5.1
X3.3Y-5.2
X3.4Y-4.8
X3.4Y-4.9
X3.4Y-5.0
X3.4Y-5.1
X3.4Y-5.2
X3.5Y-4.8
X3.5Y-4.9
X3.5Y-5.0
X3.5Y-5.1
X3.5Y-5.2
X3.6Y-4.8
X3.6Y-4.9
X3.6Y-5.0
X3.6Y-5.1
X3.6Y-5.2
X2.2Y-2.8
X2.2Y-2.9
X2.2Y-3.0
X2.2Y-3.1
X2.2Y-3.2
X2.3Y-2.8
X2.3Y-2.9
X2.3Y-3.0
X2.3Y-3.1
X2.3Y-3.2
X2.4Y-2.8
X2.4Y-2.9
X2.4Y-3.0
X2.4Y-3.1
X2.4Y-3.2
X2.5Y-2.8
X2.5Y-2.9
X2.5Y-3.0
X2.5Y-3.1
X2.5Y-3.2
X2.6Y-2.8
X2.6Y-2.9
X2.6Y-3.0
X2.6Y-3.1
X2.6Y-3.2
X11.7Y-3.8
X11.7Y-3.9
X11.7Y-4.0
X11.7Y-4.1
X11.7Y-4.2
X11.8Y-3.8
X11.8Y-3.9
X11.8Y-4.0
X11.8Y-4.1
X11.8Y-4.2
X11.9Y-3.8
X11.9Y-3.9
X11.9Y-4.0
X11.9Y-4.1
X11.9Y-4.2
X12.0Y-3.8
X12.0Y-3.9
X12.0Y-4.0
X12.0Y-4.1
X12.0Y-4.2
X12.1Y-3.8
X12.1Y-3.9
X12.1Y-4.0
X12.1Y-4.1
X12.1Y-4.2
X9.7Y-7.8
X9.7Y-7.9
X9.7Y-8.0
X9.7Y-8.1
X9.7Y-8.2
X9.8Y-7.8
X9.8Y-7.9
X9.8Y-8.0
X9.8Y-8.1
X9.8Y-8.2
X9.9Y-7.8
X9.9Y-7.9
X9.9Y-8.0
X9.9Y-8.1
X9.9Y-8.2
X10.0Y-7.8
X10.0Y-7.9
X10.0Y-8.0
X10.0Y-8.1
X10.0Y-8.2
X10.1Y-7.8
X10.1Y-7.9
X10.1Y-8.0
X10.1Y-8.1
X10.1Y-8.2
X6.2Y-6.3
X6.2Y-6.4
X6.2Y-6.5
X6.2Y-6.6
X6.2Y-6.7
X6.3Y-6.3
X6.3Y-6.4
X6.3Y-6.5
X6.3Y-6.6
X6.3Y-6.7
X6.4Y-6.3
X6.4Y-6.4
X6.4Y-6.5
X6.4Y-6.6
X6.4Y-6.7
X6.5Y-6.3
X6.5Y-6.4
X6.5Y-6.5
X6.5Y-6.6
X6.5Y-6.7
X6.6Y-6.3
X6.6Y-6.4
X6.6Y-6.5
X6.6Y-6.6
X6.6Y-6.7
X5.7Y-5.3
X5.7Y-5.4
X5.7Y-5.5
X5.7Y-5.6
X5.7Y-5.7
X5.8Y-5.3
X5.8Y-5.4
X5.8Y-5.5
X5.8Y-5.6
X5.8Y-5.7
X5.9Y-5.3
X5.9Y-5.4
X5.9Y-5.5
X5.9Y-5.6
X5.9Y-5.7
X6.0Y-5.3
X6.0Y-5.4
X6.0Y-5.5
X6.0Y-5.6
X6.0Y-5.7
X6.1Y-5.3
X6.1Y-5.4
X6.1Y-5.5
X6.1Y-5.6
X6.1Y-5.7
X7.2Y-1.8
X7.2Y-1.9
X7.2Y-2.0
X7.2Y-2.1
X7.2Y-2.2
X7.3Y-1.8
X7.3Y-1.9
X7.3Y-2.0
X7.3Y-2.1
X7.3Y-2.2
X7.4Y-1.8
X7.4Y-1.9
X7.4Y-2.0
X7.4Y-2.1
X7.4Y-2.2
X7.5Y-1.8
X7.5Y-1.9
X7.5Y-2.0
X7.5Y-2.1
X7.5Y-2.2
X7.6Y-1.8
X7.6Y-1.9
X7.6Y-2.0
X7.6Y-2.1
X7.6Y-2.2
X2.2Y-5.3
X2.2Y-5.4
X2.2Y-5.5
X2.2Y-5.6
X2.2Y-5.7
X2.3Y-5.3
X2.3Y-5.4
X2.3Y-5.5
X2.3Y-5.6
X2.3Y-5.7
X2.4Y-5.3
X2.4Y-5.4
X2.4Y-5.5
X2.4Y-5.6
X2.4Y-5.7
X2.5Y-5.3
X2.5Y-5.4
X2.5Y-5.5
X2.5Y-5.6
X2.5Y-5.7
X2.6Y-5.3
X2.6Y-5.4
X2.6Y-5.5
X2.6Y-5.6
X2.6Y-5.7
X3.2Y-3.3
X3.2Y-3.4
X3.2Y-3.5
X3.2Y-3.6
X3.2Y-3.7
X3.3Y-3.3
X3.3Y-3.4
X3.3Y-3.5
X3.3Y-3.6
X3.3Y-3.7
X3.4Y-3.3
X3.4Y-3.4
X3.4Y-3.5
X3.4Y-3.6
X3.4Y-3.7
X3.5Y-3.3
X3.5Y-3.4
X3.5Y-3.5
X3.5Y-3.6
X3.5Y-3.7
X3.6Y-3.3
X3.6Y-3.4
X3.6Y-3.5
X3.6Y-3.6
X3.6Y-3.7
X11.7Y-7.8
X11.7Y-7.9
X11.7Y-8.0
X11.7Y-8.1
X11.7Y-8.2
X11.8Y-7.8
X11.8Y-7.9
X11.8Y-8.0
X11.8Y-8.1
X11.8Y-8.2
X11.9Y-7.8
X11.9Y-7.9
X11.9Y-8.0
X11.9Y-8.1
X11.9Y-8.2
X12.0Y-7.8
X12.0Y-7.9
X12.0Y-8.0
X12.0Y-8.1
X12.0Y-8.2
X12.1Y-7.8
X12.1Y-7.9
X12.1Y-8.0
X12.1Y-8.1
X12.1Y-8.2
X12.2Y-7.3
X12.2Y-7.4
X12.2Y-7.5
X12.2Y-7.6
X12.2Y-7.7
X12.3Y-7.3
X12.3Y-7.4
X12.3Y-7.5
X12.3Y-7.6
X12.3Y-7.7
X12.4Y-7.3
X12.4Y-7.4
X12.4Y-7.5
X12.4Y-7.6
X12.4Y-7.7
X12.5Y-7.3
X12.5Y-7.4
X12.5Y-7.5
X12.5Y-7.6
X12.5Y-7.7
X12.6Y-7.3
X12.6Y-7.4
X12.6Y-7.5
X12.6Y-7.6
X12.6Y-7.7
X7.7Y-2.8
X7.7Y-2.9
X7.7Y-3.0
X7.7Y-3.1
X7.7Y-3.2
X7.8Y-2.8
X7.8Y-2.9
X7.8Y-3.0
X7.8Y-3.1
X7.8Y-3.2
X7.9Y-2.8
X7.9Y-2.9
X7.9Y-3.0
X7.9Y-3.1
X7.9Y-3.2
X8.0Y-2.8
X8.0Y-2.9
X8.0Y-3.0
X8.0Y-3.1
X8.0Y-3.2
X8.1Y-2.8
X8.1Y-2.9
X8.1Y-3.0
X8.1Y-3.1
X8.1Y-3.2
X6.7Y-4.8
X6.7Y-4.9
X6.7Y-5.0
X6.7Y-5.1
X6.7Y-5.2
X6.8Y-4.8
X6.8Y-4.9
X6.8Y-5.0
X6.8Y-5.1
X6.8Y-5.2
X6.9Y-4.8
X6.9Y-4.9
X6.9Y-5.0
X6.9Y-5.1
X6.9Y-5.2
X7.0Y-4.8
X7.0Y-4.9
X7.0Y-5.0
X7.0Y-5.1
X7.0Y-5.2
X7.1Y-4.8
X7.1Y-4.9
X7.1Y-5.0
X7.1Y-5.1
X7.1Y-5.2
X2.2Y-2.3
X2.2Y-2.4
X2.2Y-2.5
X2.2Y-2.6
X2.2Y-2.7
X2.3Y-2.3
X2.3Y-2.4
X2.3Y-2.5
X2.3Y-2.6
X2.3Y-2.7
X2.4Y-2.3
X2.4Y-2.4
X2.4Y-2.5
X2.4Y-2.6
X2.4Y-2.7
X2.5Y-2.3
X2.5Y-2.4
X2.5Y-2.5
X2.5Y-2.6
X2.5Y-2.7
X2.6Y-2.3
X2.6Y-2.4
X2.6Y-2.5
X2.6Y-2.6
X2.6Y-2.7
X12.2Y-7.8
X12.2Y-7.9
X12.2Y-8.0
X12.2Y-8.1
X12.2Y-8.2
X12.3Y-7.8
X12.3Y-7.9
X12.3Y-8.0
X12.3Y-8.1
X12.3Y-8.2
X12.4Y-7.8
X12.4Y-7.9
X12.4Y-8.0
X12.4Y-8.1
X12.4Y-8.2
X12.5Y-7.8
X12.5Y-7.9
X12.5Y-8.0
X12.5Y-8.1
X12.5Y-8.2
X12.6Y-7.8
X12.6Y-7.9
X12.6Y-8.0
X12.6Y-8.1
X12.6Y-8.2
X11.2Y-7.8
X11.2Y-7.9
X11.2Y-8.0
X11.2Y-8.1
X11.2Y-8.2
X11.3Y-7.8
X11.3Y-7.9
X11.3Y-8.0
X11.3Y-8.1
X11.3Y-8.2
X11.4Y-7.8
X11.4Y-7.9
X11.4Y-8.0
X11.4Y-8.1
X11.4Y-8.2
X11.5Y-7.8
X11.5Y-7.9
X11.5Y-8.0
X11.5Y-8.1
X11.5Y-8.2
X11.6Y-7.8
X11.6Y-7.9
X11.6Y-8.0
X11.6Y-8.1
X11.6Y-8.2
X5.2Y-7.3
X5.2Y-7.4
X5.2Y-7.5
X5.2Y-7.6
X5.2Y-7.7
X5.3Y-7.3
X5.3Y-7.4
X5.3Y-7.5
X5.3Y-7.6
X5.3Y-7.7
X5.4Y-7.3
X5.4Y-7.4
X5.4Y-7.5
X5.4Y-7.6
X5.4Y-7.7
X5.5Y-7.3
X5.5Y-7.4
X5.5Y-7.5
X5.5Y-7.6
X5.5Y-7.7
X5.6Y-7.3
X5.6Y-7.4
X5.6Y-7.5
X5.6Y-7.6
X5.6Y-7.7
X4.2Y-1.8
X4.2Y-1.9
X4.2Y-2.0
X4.2Y-2.1
X4.2Y-2.2
X4.3Y-1.8
X4.3Y-1.9
X4.3Y-2.0
X4.3Y-2.1
X4.3Y-2.2
X4.4Y-1.8
X4.4Y-1.9
X4.4Y-2.0
X4.4Y-2.1
X4.4Y-2.2
X4.5Y-1.8
X4.5Y-1.9
X4.5Y-2.0
X4.5Y-2.1
X4.5Y-2.2
X4.6Y-1.8
X4.6Y-1.9
X4.6Y-2.0
X4.6Y-2.1
X4.6Y-2.2
X10.7Y-4.8
X10.7Y-4.9
X10.7Y-5.0
X10.7Y-5.1
X10.7Y-5.2
X10.8Y-4.8
X10.8Y-4.9
X10.8Y-5.0
X10.8Y-5.1
X10.8Y-5.2
X10.9Y-4.8
X10.9Y-4.9
X10.9Y-5.0
X10.9Y-5.1
X10.9Y-5.2
X11.0Y-4.8
X11.0Y-4.9
X11.0Y-5.0
X11.0Y-5.1
X11.0Y-5.2
X11.1Y-4.8
X11.1Y-4.9
X11.1Y-5.0
X11.1Y-5.1
X11.1Y-5.2
X1.2Y-4.3
X1.2Y-4.4
X1.2Y-4.5
X1.2Y-4.6
X1.2Y-4.7
X1.3Y-4.3
X1.3Y-4.4
X1.3Y-4.5
X1.3Y-4.6
X1.3Y-4.7
X1.4Y-4.3
X1.4Y-4.4
X1.4Y-4.5
X1.4Y-4.6
X1.4Y-4.7
X1.5Y-4.3
X1.5Y-4.4
X1.5Y-4.5
X1.5Y-4.6
X1.5Y-4.7
X1.6Y-4.3
X1.6Y-4.4
X1.6Y-4.5
X1.6Y-4.6
X1.6Y-4.7
X3.7Y-6.3
X3.7Y-6.4
X3.7Y-6.5
X3.7Y-6.6
X3.7Y-6.7
X3.8Y-6.3
X3.8Y-6.4
X3.8Y-6.5
X3.8Y-6.6
X3.8Y-6.7
X3.9Y-6.3
X3.9Y-6.4
X3.9Y-6.5
X3.9Y-6.6
X3.9Y-6.7
X4.0Y-6.3
X4.0Y-6.4
X4.0Y-6.5
X4.0Y-6.6
X4.0Y-6.7
X4.1Y-6.3
X4.1Y-6.4
X4.1Y-6.5
X4.1Y-6.6
X4.1Y-6.7
X6.2Y-1.8
X6.2Y-1.9
X6.2Y-2.0
X6.2Y-2.1
X6.2Y-2.2
X6.3Y-1.8
X6.3Y-1.9
X6.3Y-2.0
X6.3Y-2.1
X6.3Y-2.2
X6.4Y-1.8
X6.4Y-1.9
X6.4Y-2.0
X6.4Y-2.1
X6.4Y-2.2
X6.5Y-1.8
X6.5Y-1.9
X6.5Y-2.0
X6.5Y-2.1
X6.5Y-2.2
X6.6Y-1.8
X6.6Y-1.9
X6.6Y-2.0
X6.6Y-2.1
X6.6Y-2.2
X5.2Y-3.8
X5.2Y-3.9
X5.2Y-4.0
X5.2Y-4.1
X5.2Y-4.2
X5.3Y-3.8
X5.3Y-3.9
X5.3Y-4.0
X5.3Y-4.1
X5.3Y-4.2
X5.4Y-3.8
X5.4Y-3.9
X5.4Y-4.0
X5.4Y-4.1
X5.4Y-4.2
X5.5Y-3.8
X5.5Y-3.9
X5.5Y-4.0
X5.5Y-4.1
X5.5Y-4.2
X5.6Y-3.8
X5.6Y-3.9
X5.6Y-4.0
X5.6Y-4.1
X5.6Y-4.2
X3.2Y-5.8
X3.2Y-5.9
X3.2Y-6.0
X3.2Y-6.1
X3.2Y-6.2
X3.3Y-5.8
X3.3Y-5.9
X3.3Y-6.0
X3.3Y-6.1
X3.3Y-6.2
X3.4Y-5.8
X3.4Y-5.9
X3.4Y-6.0
X3.4Y-6.1
X3.4Y-6.2
X3.5Y-5.8
X3.5Y-5.9
X3.5Y-6.0
X3.5Y-6.1
X3.5Y-6.2
X3.6Y-5.8
X3.6Y-5.9
X3.6Y-6.0
X3.6Y-6.1
X3.6Y-6.2
X9.7Y-3.8
X9.7Y-3.9
X9.7Y-4.0
X9.7Y-4.1
X9.7Y-4.2
X9.8Y-3.8
X9.8Y-3.9
X9.8Y-4.0
X9.8Y-4.1
X9.8Y-4.2
X9.9Y-3.8
X9.9Y-3.9
X9.9Y-4.0
X9.9Y-4.1
X9.9Y-4.2
X10.0Y-3.8
X10.0Y-3.9
X10.0Y-4.0
X10.0Y-4.1
X10.0Y-4.2
X10.1Y-3.8
X10.1Y-3.9
X10.1Y-4.0
X10.1Y-4.1
X10.1Y-4.2
X11.7Y-6.8
X11.7Y-6.9
X11.7Y-7.0
X11.7Y-7.1
X11.7Y-7.2
X11.8Y-6.8
X11.8Y-6.9
X11.8Y-7.0
X11.8Y-7.1
X11.8Y-7.2
X11.9Y-6.8
X11.9Y-6.9
X11.9Y-7.0
X11.9Y-7.1
X11.9Y-7.2
X12.0Y-6.8
X12.0Y-6.9
X12.0Y-7.0
X12.0Y-7.1
X12.0Y-7.2
X12.1Y-6.8
X12.1Y-6.9
X12.1Y-7.0
X12.1Y-7.1
X12.1Y-7.2
X7.2Y-5.8
X7.2Y-5.9
X7.2Y-6.0
X7.2Y-6.1
X7.2Y-6.2
X7.3Y-5.8
X7.3Y-5.9
X7.3Y-6.0
X7.3Y-6.1
X7.3Y-6.2
X7.4Y-5.8
X7.4Y-5.9
X7.4Y-6.0
X7.4Y-6.1
X7.4Y-6.2
X7.5Y-5.8
X7.5Y-5.9
X7.5Y-6.0
X7.5Y-6.1
X7.5Y-6.2
X7.6Y-5.8
X7.6Y-5.9
X7.6Y-6.0
X7.6Y-6.1
X7.6Y-6.2
X3.7Y-5.8
X3.7Y-5.9
X3.7Y-6.0
X3.7Y-6.1
X3.7Y-6.2
X3.8Y-5.8
X3.8Y-5.9
X3.8Y-6.0
X3.8Y-6.1
X3.8Y-6.2
X3.9Y-5.8
X3.9Y-5.9
X3.9Y-6.0
X3.9Y-6.1
X3.9Y-6.2
X4.0Y-5.8
X4.0Y-5.9
X4.0Y-6.0
X4.0Y-6.1
X4.0Y-6.2
X4.1Y-5.8
X4.1Y-5.9
X4.1Y-6.0
X4.1Y-6.1
X4.1Y-6.2
X9.2Y-1.8
X9.2Y-1.9
X9.2Y-2.0
X9.2Y-2.1
X9.2Y-2.2
X9.3Y-1.8
X9.3Y-1.9
X9.3Y-2.0
X9.3Y-2.1
X9.3Y-2.2
X9.4Y-1.8
X9.4Y-1.9
X9.4Y-2.0
X9.4Y-2.1
X9.4Y-2.2
X9.5Y-1.8
X9.5Y-1.9
X9.5Y-2.0
X9.5Y-2.1
X9.5Y-2.2
X9.6Y-1.8
X9.6Y-1.9
X9.6Y-2.0
X9.6Y-2.1
X9.6Y-2.2
X11.7Y-3.3
X11.7Y-3.4
X11.7Y-3.5
X11.7Y-3.6
X11.7Y-3.7
X11.8Y-3.3
X11.8Y-3.4
X11.8Y-3.5
X11.8Y-3.6
X11.8Y-3.7
X11.9Y-3.3
X11.9Y-3.4
X11.9Y-3.5
X11.9Y-3.6
X11.9Y-3.7
X12.0Y-3.3
X12.0Y-3.4
X12.0Y-3.5
X12.0Y-3.6
X12.0Y-3.7
X12.1Y-3.3
X12.1Y-3.4
X12.1Y-3.5
X12.1Y-3.6
X12.1Y-3.7
X9.2Y-7.3
X9.2Y-7.4
X9.2Y-7.5
X9.2Y-7.6
X9.2Y-7.7
X9.3Y-7.3
X9.3Y-7.4
X9.3Y-7.5
X9.3Y-7.6
X9.3Y-7.7
X9.4Y-7.3
X9.4Y-7.4
X9.4Y-7.5
X9.4Y-7.6
X9.4Y-7.7
X9.5Y-7.3
X9.5Y-7.4
X9.5Y-7.5
X9.5Y-7.6
X9.5Y-7.7
X9.6Y-7.3
X9.6Y-7.4
X9.6Y-7.5
X9.6Y-7.6
X9.6Y-7.7
X9.2Y-4.8
X9.2Y-4.9
X9.2Y-5.0
X9.2Y-5.1
X9.2Y-5.2
X9.3Y-4.8
X9.3Y-4.9
X9.3Y-5.0
X9.3Y-5.1
X9.3Y-5.2
X9.4Y-4.8
X9.4Y-4.9
X9.4Y-5.0
X9.4Y-5.1
X9.4Y-5.2
X9.5Y-4.8
X9.5Y-4.9
X9.5Y-5.0
X9.5Y-5.1
X9.5Y-5.2
X9.6Y-4.8
X9.6Y-4.9
X9.6Y-5.0
X9.6Y-5.1
X9.6Y-5.2
X5.7Y-7.8
X5.7Y-7.9
X5.7Y-8.0
X5.7Y-8.1
X5.7Y-8.2
X5.8Y-7.8
X5.8Y-7.9
X5.8Y-8.0
X5.8Y-8.1
X5.8Y-8.2
X5.9Y-7.8
X5.9Y-7.9
X5.9Y-8.0
X5.9Y-8.1
X5.9Y-8.2
X6.0Y-7.8
X6.0Y-7.9
X6.0Y-8.0
X6.0Y-8.1
X6.0Y-8.2
X6.1Y-7.8
X6.1Y-7.9
X6.1Y-8.0
X6.1Y-8.1
X6.1Y-8.2
X4.7Y-4.8
X4.7Y-4.9
X4.7Y-5.0
X4.7Y-5.1
X4.7Y-5.2
X4.8Y-4.8
X4.8Y-4.9
X4.8Y-5.0
X4.8Y-5.1
X4.8Y-5.2
X4.9Y-4.8
X4.9Y-4.9
X4.9Y-5.0
X4.9Y-5.1
X4.9Y-5.2
X5.0Y-4.8
X5.0Y-4.9
X5.0Y-5.0
X5.0Y-5.1
X5.0Y-5.2
X5.1Y-4.8
X5.1Y-4.9
X5.1Y-5.0
X5.1Y-5.1
X5.1Y-5.2
X2.7Y-4.8
X2.7Y-4.9
X2.7Y-5.0
X2.7Y-5.1
X2.7Y-5.2
X2.8Y-4.8
X2.8Y-4.9
X2.8Y-5.0
X2.8Y-5.1
X2.8Y-5.2
X2.9Y-4.8
X2.9Y-4.9
X2.9Y-5.0
X2.9Y-5.1
X2.9Y-5.2
X3.0Y-4.8
X3.0Y-4.9
X3.0Y-5.0
X3.0Y-5.1
X3.0Y-5.2
X3.1Y-4.8
X3.1Y-4.9
X3.1Y-5.0
X3.1Y-5.1
X3.1Y-5.2
X9.7Y-2.3
X9.7Y-2.4
X9.7Y-2.5
X9.7Y-2.6
X9.7Y-2.7
X9.8Y-2.3
X9.8Y-2.4
X9.8Y-2.5
X9.8Y-2.6
X9.8Y-2.7
X9.9Y-2.3
X9.9Y-2.4
X9.9Y-2.5
X9.9Y-2.6
X9.9Y-2.7
X10.0Y-2.3
X10.0Y-2.4
X10.0Y-2.5
X10.0Y-2.6
X10.0Y-2.7
X10.1Y-2.3
X10.1Y-2.4
X10.1Y-2.5
X10.1Y-2.6
X10.1Y-2.7
X10.2Y-7.8
X10.2Y-7.9
X10.2Y-8.0
X10.2Y-8.1
X10.2Y-8.2
X10.3Y-7.8
X10.3Y-7.9
X10.3Y-8.0
X10.3Y-8.1
X10.3Y-8.2
X10.4Y-7.8
X10.4Y-7.9
X10.4Y-8.0
X10.4Y-8.1
X10.4Y-8.2
X10.5Y-7.8
X10.5Y-7.9
X10.5Y-8.0
X10.5Y-8.1
X10.5Y-8.2
X10.6Y-7.8
X10.6Y-7.9
X10.6Y-8.0
X10.6Y-8.1
X10.6Y-8.2
X8.7Y-1.8
X8.7Y-1.9
X8.7Y-2.0
X8.7Y-2.1
X8.7Y-2.2
X8.8Y-1.8
X8.8Y-1.9
X8.8Y-2.0
X8.8Y-2.1
X8.8Y-2.2
X8.9Y-1.8
X8.9Y-1.9
X8.9Y-2.0
X8.9Y-2.1
X8.9Y-2.2
X9.0Y-1.8
X9.0Y-1.9
X9.0Y-2.0
X9.0Y-2.1
X9.0Y-2.2
X9.1Y-1.8
X9.1Y-1.9
X9.1Y-2.0
X9.1Y-2.1
X9.1Y-2.2
X6.7Y-3.8
X6.7Y-3.9
X6.7Y-4.0
X6.7Y-4.1
X6.7Y-4.2
X6.8Y-3.8
X6.8Y-3.9
X6.8Y-4.0
X6.8Y-4.1
X6.8Y-4.2
X6.9Y-3.8
X6.9Y-3.9
X6.9Y-4.0
X6.9Y-4.1
X6.9Y-4.2
X7.0Y-3.8
X7.0Y-3.9
X7.0Y-4.0
X7.0Y-4.1
X7.0Y-4.2
X7.1Y-3.8
X7.1Y-3.9
X7.1Y-4.0
X7.1Y-4.1
X7.1Y-4.2
X7.7Y-2.3
X7.7Y-2.4
X7.7Y-2.5
X7.7Y-2.6
X7.7Y-2.7
X7.8Y-2.3
X7.8Y-2.4
X7.8Y-2.5
X7.8Y-2.6
X7.8Y-2.7
X7.9Y-2.3
X7.9Y-2.4
X7.9Y-2.5
X7.9Y-2.6
X7.9Y-2.7
X8.0Y-2.3
X8.0Y-2.4
X8.0Y-2.5
X8.0Y-2.6
X8.0Y-2.7
X8.1Y-2.3
X8.1Y-2.4
X8.1Y-2.5
X8.1Y-2.6
X8.1Y-2.7
X9.7Y-6.3
X9.7Y-6.4
X9.7Y-6.5
X9.7Y-6.6
X9.7Y-6.7
X9.8Y-6.3
X9.8Y-6.4
X9.8Y-6.5
X9.8Y-6.6
X9.8Y-6.7
X9.9Y-6.3
X9.9Y-6.4
X9.9Y-6.5
X9.9Y-6.6
X9.9Y-6.7
X10.0Y-6.3
X10.0Y-6.4
X10.0Y-6.5
X10.0Y-6.6
X10.0Y-6.7
X10.1Y-6.3
X10.1Y-6.4
X10.1Y-6.5
X10.1Y-6.6
X10.1Y-6.7
X3.7Y-7.8
X3.7Y-7.9
X3.7Y-8.0
X3.7Y-8.1
X3.7Y-8.2
X3.8Y-7.8
X3.8Y-7.9
X3.8Y-8.0
X3.8Y-8.1
X3.8Y-8.2
X3.9Y-7.8
X3.9Y-7.9
X3.9Y-8.0
X3.9Y-8.1
X3.9Y-8.2
X4.0Y-7.8
X4.0Y-7.9
X4.0Y-8.0
X4.0Y-8.1
X4.0Y-8.2
X4.1Y-7.8
X4.1Y-7.9
X4.1Y-8.0
X4.1Y-8.1
X4.1Y-8.2
X8.2Y-6.8
X8.2Y-6.9
X8.2Y-7.0
X8.2Y-7.1
X8.2Y-7.2
X8.3Y-6.8
X8.3Y-6.9
X8.3Y-7.0
X8.3Y-7.1
X8.3Y-7.2
X8.4Y-6.8
X8.4Y-6.9
X8.4Y-7.0
X8.4Y-7.1
X8.4Y-7.2
X8.5Y-6.8
X8.5Y-6.9
X8.5Y-7.0
X8.5Y-7.1
X8.5Y-7.2
X8.6Y-6.8
X8.6Y-6.9
X8.6Y-7.0
X8.6Y-7.1
X8.6Y-7.2
X1.2Y-7.8
X1.2Y-7.9
X1.2Y-8.0
X1.2Y-8.1
X1.2Y-8.2
X1.3Y-7.8
X1.3Y-7.9
X1.3Y-8.0
X1.3Y-8.1
X1.3Y-8.2
X1.4Y-7.8
X1.4Y-7.9
X1.4Y-8.0
X1.4Y-8.1
X1.4Y-8.2
X1.5Y-7.8
X1.5Y-7.9
X1.5Y-8.0
X1.5Y-8.1
X1.5Y-8.2
X1.6Y-7.8
X1.6Y-7.9
X1.6Y-8.0
X1.6Y-8.1
X1.6Y-8.2
X2.2Y-6.3
X2.2Y-6.4
X2.2Y-6.5
X2.2Y-6.6
X2.2Y-6.7
X2.3Y-6.3
X2.3Y-6.4
X2.3Y-6.5
X2.3Y-6.6
X2.3Y-6.7
X2.4Y-6.3
X2.4Y-6.4
X2.4Y-6.5
X2.4Y-6.6
X2.4Y-6.7
X2.5Y-6.3
X2.5Y-6.4
X2.5Y-6.5
X2.5Y-6.6
X2.5Y-6.7
X2.6Y-6.3
X2.6Y-6.4
X2.6Y-6.5
X2.6Y-6.6
X2.6Y-6.7
X7.2Y-3.3
X7.2Y-3.4
X7.2Y-3.5
X7.2Y-3.6
X7.2Y-3.7
X7.3Y-3.3
X7.3Y-3.4
X7.3Y-3.5
X7.3Y-3.6
X7.3Y-3.7
X7.4Y-3.3
X7.4Y-3.4
X7.4Y-3.5
X7.4Y-3.6
X7.4Y-3.7
X7.5Y-3.3
X7.5Y-3.4
X7.5Y-3.5
X7.5Y-3.6
X7.5Y-3.7
X7.6Y-3.3
X7.6Y-3.4
X7.6Y-3.5
X7.6Y-3.6
X7.6Y-3.7
X6.7Y-6.3
X6.7Y-6.4
X6.7Y-6.5
X6.7Y-6.6
X6.7Y-6.7
X6.8Y-6.3
X6.8Y-6.4
X6.8Y-6.5
X6.8Y-6.6
X6.8Y-6.7
X6.9Y-6.3
X6.9Y-6.4
X6.9Y-6.5
X6.9Y-6.6
X6.9Y-6.7
X7.0Y-6.3
X7.0Y-6.4
X7.0Y-6.5
X7.0Y-6.6
X7.0Y-6.7
X7.1Y-6.3
X7.1Y-6.4
X7.1Y-6.5
X7.1Y-6.6
X7.1Y-6.7
X3.2Y-2.3
X3.2Y-2.4
X3.2Y-2.5
X3.2Y-2.6
X3.2Y-2.7
X3.3Y-2.3
X3.3Y-2.4
X3.3Y-2.5
X3.3Y-2.6
X3.3Y-2.7
X3.4Y-2.3
X3.4Y-2.4
X3.4Y-2.5
X3.4Y-2.6
X3.4Y-2.7
X3.5Y-2.3
X3.5Y-2.4
X3.5Y-2.5
X3.5Y-2.6
X3.5Y-2.7
X3.6Y-2.3
X3.6Y-2.4
X3.6Y-2.5
X3.6Y-2.6
X3.6Y-2.7
X2.7Y-3.3
X2.7Y-3.4
X2.7Y-3.5
X2.7Y-3.6
X2.7Y-3.7
X2.8Y-3.3
X2.8Y-3.4
X2.8Y-3.5
X2.8Y-3.6
X2.8Y-3.7
X2.9Y-3.3
X2.9Y-3.4
X2.9Y-3.5
X2.9Y-3.6
X2.9Y-3.7
X3.0Y-3.3
X3.0Y-3.4
X3.0Y-3.5
X3.0Y-3.6
X3.0Y-3.7
X3.1Y-3.3
X3.1Y-3.4
X3.1Y-3.5
X3.1Y-3.6
X3.1Y-3.7
X7.7Y-3.8
X7.7Y-3.9
X7.7Y-4.0
X7.7Y-4.1
X7.7Y-4.2
X7.8Y-3.8
X7.8Y-3.9
X7.8Y-4.0
X7.8Y-4.1
X7.8Y-4.2
X7.9Y-3.8
X7.9Y-3.9
X7.9Y-4.0
X7.9Y-4.1
X7.9Y-4.2
X8.0Y-3.8
X8.0Y-3.9
X8.0Y-4.0
X8.0Y-4.1
X8.0Y-4.2
X8.1Y-3.8
X8.1Y-3.9
X8.1Y-4.0
X8.1Y-4.1
X8.1Y-4.2
X10.2Y-2.3
X10.2Y-2.4
X10.2Y-2.5
X10.2Y-2.6
X10.2Y-2.7
X10.3Y-2.3
X10.3Y-2.4
X10.3Y-2.5
X10.3Y-2.6
X10.3Y-2.7
X10.4Y-2.3
X10.4Y-2.4
X10.4Y-2.5
X10.4Y-2.6
X10.4Y-2.7
X10.5Y-2.3
X10.5Y-2.4
X10.5Y-2.5
X10.5Y-2.6
X10.5Y-2.7
X10.6Y-2.3
X10.6Y-2.4
X10.6Y-2.5
X10.6Y-2.6
X10.6Y-2.7
X4.2Y-2.8
X4.2Y-2.9
X4.2Y-3.0
X4.2Y-3.1
X4.2Y-3.2
X4.3Y-2.8
X4.3Y-2.9
X4.3Y-3.0
X4.3Y-3.1
X4.3Y-3.2
X4.4Y-2.8
X4.4Y-2.9
X4.4Y-3.0
X4.4Y-3.1
X4.4Y-3.2
X4.5Y-2.8
X4.5Y-2.9
X4.5Y-3.0
X4.5Y-3.1
X4.5Y-3.2
X4.6Y-2.8
X4.6Y-2.9
X4.6Y-3.0
X4.6Y-3.1
X4.6Y-3.2
X11.2Y-6.3
X11.2Y-6.4
X11.2Y-6.5
X11.2Y-6.6
X11.2Y-6.7
X11.3Y-6.3
X11.3Y-6.4
X11.3Y-6.5
X11.3Y-6.6
X11.3Y-6.7
X11.4Y-6.3
X11.4Y-6.4
X11.4Y-6.5
X11.4Y-6.6
X11.4Y-6.7
X11.5Y-6.3
X11.5Y-6.4
X11.5Y-6.5
X11.5Y-6.6
X11.5Y-6.7
X11.6Y-6.3
X11.6Y-6.4
X11.6Y-6.5
X11.6Y-6.6
X11.6Y-6.7
X8.2Y-6.3
X8.2Y-6.4
X8.2Y-6.5
X8.2Y-6.6
X8.2Y-6.7
X8.3Y-6.3
X8.3Y-6.4
X8.3Y-6.5
X8.3Y-6.6
X8.3Y-6.7
X8.4Y-6.3
X8.4Y-6.4
X8.4Y-6.5
X8.4Y-6.6
X8.4Y-6.7
X8.5Y-6.3
X8.5Y-6.4
X8.5Y-6.5
X8.5Y-6.6
X8.5Y-6.7
X8.6Y-6.3
X8.6Y-6.4
X8.6Y-6.5
X8.6Y-6.6
X8.6Y-6.7
X5.2Y-6.8
X5.2Y-6.9
X5.2Y-7.0
X5.2Y-7.1
X5.2Y-7.2
X5.3Y-6.8
X5.3Y-6.9
X5.3Y-7.0
X5.3Y-7.1
X5.3Y-7.2
X5.4Y-6.8
X5.4Y-6.9
X5.4Y-7.0
X5.4Y-7.1
X5.4Y-7.2
X5.5Y-6.8
X5.5Y-6.9
X5.5Y-7.0
X5.5Y-7.1
X5.5Y-7.2
X5.6Y-6.8
X5.6Y-6.9
X5.6Y-7.0
X5.6Y-7.1
X5.6Y-7.2
X6.2Y-4.3
X6.2Y-4.4
X6.2Y-4.5
X6.2Y-4.6
X6.2Y-4.7
X6.3Y-4.3
X6.3Y-4.4
X6.3Y-4.5
X6.3Y-4.6
X6.3Y-4.7
X6.4Y-4.3
X6.4Y-4.4
X6.4Y-4.5
X6.4Y-4.6
X6.4Y-4.7
X6.5Y-4.3
X6.5Y-4.4
X6.5Y-4.5
X6.5Y-4.6
X6.5Y-4.7
X6.6Y-4.3
X6.6Y-4.4
X6.6Y-4.5
X6.6Y-4.6
X6.6Y-4.7
X1.7Y-6.8
X1.7Y-6.9
X1.7Y-7.0
X1.7Y-7.1
X1.7Y-7.2
X1.8Y-6.8
X1.8Y-6.9
X1.8Y-7.0
X1.8Y-7.1
X1.8Y-7.2
X1.9Y-6.8
X1.9Y-6.9
X1.9Y-7.0
X1.9Y-7.1
X1.9Y-7.2
X2.0Y-6.8
X2.0Y-6.9
X2.0Y-7.0
X2.0Y-7.1
X2.0Y-7.2
X2.1Y-6.8
X2.1Y-6.9
X2.1Y-7.0
X2.1Y-7.1
X2.1Y-7.2
X11.2Y-2.8
X11.2Y-2.9
X11.2Y-3.0
X11.2Y-3.1
X11.2Y-3.2
X11.3Y-2.8
X11.3Y-2.9
X11.3Y-3.0
X11.3Y-3.1
X11.3Y-3.2
X11.4Y-2.8
X11.4Y-2.9
X11.4Y-3.0
X11.4Y-3.1
X11.4Y-3.2
X11.5Y-2.8
X11.5Y-2.9
X11.5Y-3.0
X11.5Y-3.1
X11.5Y-3.2
X11.6Y-2.8
X11.6Y-2.9
X11.6Y-3.0
X11.6Y-3.1
X11.6Y-3.2
X1.2Y-7.3
X1.2Y-7.4
X1.2Y-7.5
X1.2Y-7.6
X1.2Y-7.7
X1.3Y-7.3
X1.3Y-7.4
X1.3Y-7.5
X1.3Y-7.6
X1.3Y-7.7
X1.4Y-7.3
X1.4Y-7.4
X1.4Y-7.5
X1.4Y-7.6
X1.4Y-7.7
X1.5Y-7.3
X1.5Y-7.4
X1.5Y-7.5
X1.5Y-7.6
X1.5Y-7.7
X1.6Y-7.3
X1.6Y-7.4
X1.6Y-7.5
X1.6Y-7.6
X1.6Y-7.7
X3.2Y-5.3
X3.2Y-5.4
X3.2Y-5.5
X3.2Y-5.6
X3.2Y-5.7
X3.3Y-5.3
X3.3Y-5.4
X3.3Y-5.5
X3.3Y-5.6
X3.3Y-5.7
X3.4Y-5.3
X3.4Y-5.4
X3.4Y-5.5
X3.4Y-5.6
X3.4Y-5.7
X3.5Y-5.3
X3.5Y-5.4
X3.5Y-5.5
X3.5Y-5.6
X3.5Y-5.7
X3.6Y-5.3
X3.6Y-5.4
X3.6Y-5.5
X3.6Y-5.6
X3.6Y-5.7
X11.7Y-4.8
X11.7Y-4.9
X11.7Y-5.0
X11.7Y-5.1
X11.7Y-5.2
X11.8Y-4.8
X11.8Y-4.9
X11.8Y-5.0
X11.8Y-5.1
X11.8Y-5.2
X11.9Y-4.8
X11.9Y-4.9
X11.9Y-5.0
X11.9Y-5.1
X11.9Y-5.2
X12.0Y-4.8
X12.0Y-4.9
X12.0Y-5.0
X12.0Y-5.1
X12.0Y-5.2
X12.1Y-4.8
X12.1Y-4.9
X12.1Y-5.0
X12.1Y-5.1
X12.1Y-5.2
X4.7Y-2.8
X4.7Y-2.9
X4.7Y-3.0
X4.7Y-3.1
X4.7Y-3.2
X4.8Y-2.8
X4.8Y-2.9
X4.8Y-3.0
X4.8Y-3.1
X4.8Y-3.2
X4.9Y-2.8
X4.9Y-2.9
X4.9Y-3.0
X4.9Y-3.1
X4.9Y-3.2
X5.0Y-2.8
X5.0Y-2.9
X5.0Y-3.0
X5.0Y-3.1
X5.0Y-3.2
X5.1Y-2.8
X5.1Y-2.9
X5.1Y-3.0
X5.1Y-3.1
X5.1Y-3.2
X8.7Y-2.3
X8.7Y-2.4
X8.7Y-2.5
X8.7Y-2.6
X8.7Y-2.7
X8.8Y-2.3
X8.8Y-2.4
X8.8Y-2.5
X8.8Y-2.6
X8.8Y-2.7
X8.9Y-2.3
X8.9Y-2.4
X8.9Y-2.5
X8.9Y-2.6
X8.9Y-2.7
X9.0Y-2.3
X9.0Y-2.4
X9.0Y-2.5
X9.0Y-2.6
X9.0Y-2.7
X9.1Y-2.3
X9.1Y-2.4
X9.1Y-2.5
X9.1Y-2.6
X9.1Y-2.7
X1.7Y-3.8
X1.7Y-3.9
X1.7Y-4.0
X1.7Y-4.1
X1.7Y-4.2
X1.8Y-3.8
X1.8Y-3.9
X1.8Y-4.0
X1.8Y-4.1
X1.8Y-4.2
X1.9Y-3.8
X1.9Y-3.9
X1.9Y-4.0
X1.9Y-4.1
X1.9Y-4.2
X2.0Y-3.8
X2.0Y-3.9
X2.0Y-4.0
X2.0Y-4.1
X2.0Y-4.2
X2.1Y-3.8
X2.1Y-3.9
X2.1Y-4.0
X2.1Y-4.1
X2.1Y-4.2
X10.2Y-3.3
X10.2Y-3.4
X10.2Y-3.5
X10.2Y-3.6
X10.2Y-3.7
X10.3Y-3.3
X10.3Y-3.4
X10.3Y-3.5
X10.3Y-3.6
X10.3Y-3.7
X10.4Y-3.3
X10.4Y-3.4
X10.4Y-3.5
X10.4Y-3.6
X10.4Y-3.7
X10.5Y-3.3
X10.5Y-3.4
X10.5Y-3.5
X10.5Y-3.6
X10.5Y-3.7
X10.6Y-3.3
X10.6Y-3.4
X10.6Y-3.5
X10.6Y-3.6
X10.6Y-3.7
X1.2Y-1.8
X1.2Y-1.9
X1.2Y-2.0
X1.2Y-2.1
X1.2Y-2.2
X1.3Y-1.8
X1.3Y-1.9
X1.3Y-2.0
X1.3Y-2.1
X1.3Y-2.2
X1.4Y-1.8
X1.4Y-1.9
X1.4Y-2.0
X1.4Y-2.1
X1.4Y-2.2
X1.5Y-1.8
X1.5Y-1.9
X1.5Y-2.0
X1.5Y-2.1
X1.5Y-2.2
X1.6Y-1.8
X1.6Y-1.9
X1.6Y-2.0
X1.6Y-2.1
X1.6Y-2.2
X10.7Y-7.8
X10.7Y-7.9
X10.7Y-8.0
X10.7Y-8.1
X10.7Y-8.2
X10.8Y-7.8
X10.8Y-7.9
X10.8Y-8.0
X10.8Y-8.1
X10.8Y-8.2
X10.9Y-7.8
X10.9Y-7.9
X10.9Y-8.0
X10.9Y-8.1
X10.9Y-8.2
X11.0Y-7.8
X11.0Y-7.9
X11.0Y-8.0
X11.0Y-8.1
X11.0Y-8.2
X11.1Y-7.8
X11.1Y-7.9
X11.1Y-8.0
X11.1Y-8.1
X11.1Y-8.2
X1.7Y-7.3
X1.7Y-7.4
X1.7Y-7.5
X1.7Y-7.6
X1.7Y-7.7
X1.8Y-7.3
X1.8Y-7.4
X1.8Y-7.5
X1.8Y-7.6
X1.8Y-7.7
X1.9Y-7.3
X1.9Y-7.4
X1.9Y-7.5
X1.9Y-7.6
X1.9Y-7.7
X2.0Y-7.3
X2.0Y-7.4
X2.0Y-7.5
X2.0Y-7.6
X2.0Y-7.7
X2.1Y-7.3
X2.1Y-7.4
X2.1Y-7.5
X2.1Y-7.6
X2.1Y-7.7
X9.2Y-7.8
X9.2Y-7.9
X9.2Y-8.0
X9.2Y-8.1
X9.2Y-8.2
X9.3Y-7.8
X9.3Y-7.9
X9.3Y-8.0
X9.3Y-8.1
X9.3Y-8.2
X9.4Y-7.8
X9.4Y-7.9
X9.4Y-8.0
X9.4Y-8.1
X9.4Y-8.2
X9.5Y-7.8
X9.5Y-7.9
X9.5Y-8.0
X9.5Y-8.1
X9.5Y-8.2
X9.6Y-7.8
X9.6Y-7.9
X9.6Y-8.0
X9.6Y-8.1
X9.6Y-8.2
X9.2Y-5.8
X9.2Y-5.9
X9.2Y-6.0
X9.2Y-6.1
X9.2Y-6.2
X9.3Y-5.8
X9.3Y-5.9
X9.3Y-6.0
X9.3Y-6.1
X9.3Y-6.2
X9.4Y-5.8
X9.4Y-5.9
X9.4Y-6.0
X9.4Y-6.1
X9.4Y-6.2
X9.5Y-5.8
X9.5Y-5.9
X9.5Y-6.0
X9.5Y-6.1
X9.5Y-6.2
X9.6Y-5.8
X9.6Y-5.9
X9.6Y-6.0
X9.6Y-6.1
X9.6Y-6.2
X8.7Y-7.8
X8.7Y-7.9
X8.7Y-8.0
X8.7Y-8.1
X8.7Y-8.2
X8.8Y-7.8
X8.8Y-7.9
X8.8Y-8.0
X8.8Y-8.1
X8.8Y-8.2
X8.9Y-7.8
X8.9Y-7.9
X8.9Y-8.0
X8.9Y-8.1
X8.9Y-8.2
X9.0Y-7.8
X9.0Y-7.9
X9.0Y-8.0
X9.0Y-8.1
X9.0Y-8.2
X9.1Y-7.8
X9.1Y-7.9
X9.1Y-8.0
X9.1Y-8.1
X9.1Y-8.2
X8.2Y-2.3
X8.2Y-2.4
X8.2Y-2.5
X8.2Y-2.6
X8.2Y-2.7
X8.3Y-2.3
X8.3Y-2.4
X8.3Y-2.5
X8.3Y-2.6
X8.3Y-2.7
X8.4Y-2.3
X8.4Y-2.4
X8.4Y-2.5
X8.4Y-2.6
X8.4Y-2.7
X8.5Y-2.3
X8.5Y-2.4
X8.5Y-2.5
X8.5Y-2.6
X8.5Y-2.7
X8.6Y-2.3
X8.6Y-2.4
X8.6Y-2.5
X8.6Y-2.6
X8.6Y-2.7
X8.2Y-5.3
X8.2Y-5.4
X8.2Y-5.5
X8.2Y-5.6
X8.2Y-5.7
X8.3Y-5.3
X8.3Y-5.4
X8.3Y-5.5
X8.3Y-5.6
X8.3Y-5.7
X8.4Y-5.3
X8.4Y-5.4
X8.4Y-5.5
X8.4Y-5.6
X8.4Y-5.7
X8.5Y-5.3
X8.5Y-5.4
X8.5Y-5.5
X8.5Y-5.6
X8.5Y-5.7
X8.6Y-5.3
X8.6Y-5.4
X8.6Y-5.5
X8.6Y-5.6
X8.6Y-5.7
X7.2Y-7.3
X7.2Y-7.4
X7.2Y-7.5
X7.2Y-7.6
X7.2Y-7.7
X7.3Y-7.3
X7.3Y-7.4
X7.3Y-7.5
X7.3Y-7.6
X7.3Y-7.7
X7.4Y-7.3
X7.4Y-7.4
X7.4Y-7.5
X7.4Y-7.6
X7.4Y-7.7
X7.5Y-7.3
X7.5Y-7.4
X7.5Y-7.5
X7.5Y-7.6
X7.5Y-7.7
X7.6Y-7.3
X7.6Y-7.4
X7.6Y-7.5
X7.6Y-7.6
X7.6Y-7.7
X4.2Y-2.3
X4.2Y-2.4
X4.2Y-2.5
X4.2Y-2.6
X4.2Y-2.7
X4.3Y-2.3
X4.3Y-2.4
X4.3Y-2.5
X4.3Y-2.6
X4.3Y-2.7
X4.4Y-2.3
X4.4Y-2.4
X4.4Y-2.5
X4.4Y-2.6
X4.4Y-2.7
X4.5Y-2.3
X4.5Y-2.4
X4.5Y-2.5
X4.5Y-2.6
X4.5Y-2.7
X4.6Y-2.3
X4.6Y-2.4
X4.6Y-2.5
X4.6Y-2.6
X4.6Y-2.7
X6.2Y-3.3
X6.2Y-3.4
X6.2Y-3.5
X6.2Y-3.6
X6.2Y-3.7
X6.3Y-3.3
X6.3Y-3.4
X6.3Y-3.5
X6.3Y-3.6
X6.3Y-3.7
X6.4Y-3.3
X6.4Y-3.4
X6.4Y-3.5
X6.4Y-3.6
X6.4Y-3.7
X6.5Y-3.3
X6.5Y-3.4
X6.5Y-3.5
X6.5Y-3.6
X6.5Y-3.7
X6.6Y-3.3
X6.6Y-3.4
X6.6Y-3.5
X6.6Y-3.6
X6.6Y-3.7
X2.7Y-7.8
X2.7Y-7.9
X2.7Y-8.0
X2.7Y-8.1
X2.7Y-8.2
X2.8Y-7.8
X2.8Y-7.9
X2.8Y-8.0
X2.8Y-8.1
X2.8Y-8.2
X2.9Y-7.8
X2.9Y-7.9
X2.9Y-8.0
X2.9Y-8.1
X2.9Y-8.2
X3.0Y-7.8
X3.0Y-7.9
X3.0Y-8.0
X3.0Y-8.1
X3.0Y-8.2
X3.1Y-7.8
X3.1Y-7.9
X3.1Y-8.0
X3.1Y-8.1
X3.1Y-8.2
X9.7Y-6.8
X9.7Y-6.9
X9.7Y-7.0
X9.7Y-7.1
X9.7Y-7.2
X9.8Y-6.8
X9.8Y-6.9
X9.8Y-7.0
X9.8Y-7.1
X9.8Y-7.2
X9.9Y-6.8
X9.9Y-6.9
X9.9Y-7.0
X9.9Y-7.1
X9.9Y-7.2
X10.0Y-6.8
X10.0Y-6.9
X10.0Y-7.0
X10.0Y-7.1
X10.0Y-7.2
X10.1Y-6.8
X10.1Y-6.9
X10.1Y-7.0
X10.1Y-7.1
X10.1Y-7.2
X3.7Y-6.8
X3.7Y-6.9
X3.7Y-7.0
X3.7Y-7.1
X3.7Y-7.2
X3.8Y-6.8
X3.8Y-6.9
X3.8Y-7.0
X3.8Y-7.1
X3.8Y-7.2
X3.9Y-6.8
X3.9Y-6.9
X3.9Y-7.0
X3.9Y-7.1
X3.9Y-7.2
X4.0Y-6.8
X4.0Y-6.9
X4.0Y-7.0
X4.0Y-7.1
X4.0Y-7.2
X4.1Y-6.8
X4.1Y-6.9
X4.1Y-7.0
X4.1Y-7.1
X4.1Y-7.2
X3.2Y-4.3
X3.2Y-4.4
X3.2Y-4.5
X3.2Y-4.6
X3.2Y-4.7
X3.3Y-4.3
X3.3Y-4.4
X3.3Y-4.5
X3.3Y-4.6
X3.3Y-4.7
X3.4Y-4.3
X3.4Y-4.4
X3.4Y-4.5
X3.4Y-4.6
X3.4Y-4.7
X3.5Y-4.3
X3.5Y-4.4
X3.5Y-4.5
X3.5Y-4.6
X3.5Y-4.7
X3.6Y-4.3
X3.6Y-4.4
X3.6Y-4.5
X3.6Y-4.6
X3.6Y-4.7
X7.2Y-2.3
X7.2Y-2.4
X7.2Y-2.5
X7.2Y-2.6
X7.2Y-2.7
X7.3Y-2.3
X7.3Y-2.4
X7.3Y-2.5
X7.3Y-2.6
X7.3Y-2.7
X7.4Y-2.3
X7.4Y-2.4
X7.4Y-2.5
X7.4Y-2.6
X7.4Y-2.7
X7.5Y-2.3
X7.5Y-2.4
X7.5Y-2.5
X7.5Y-2.6
X7.5Y-2.7
X7.6Y-2.3
X7.6Y-2.4
X7.6Y-2.5
X7.6Y-2.6
X7.6Y-2.7
X2.7Y-3.8
X2.7Y-3.9
X2.7Y-4.0
X2.7Y-4.1
X2.7Y-4.2
X2.8Y-3.8
X2.8Y-3.9
X2.8Y-4.0
X2.8Y-4.1
X2.8Y-4.2
X2.9Y-3.8
X2.9Y-3.9
X2.9Y-4.0
X2.9Y-4.1
X2.9Y-4.2
X3.0Y-3.8
X3.0Y-3.9
X3.0Y-4.0
X3.0Y-4.1
X3.0Y-4.2
X3.1Y-3.8
X3.1Y-3.9
X3.1Y-4.0
X3.1Y-4.1
X3.1Y-4.2
X2.2Y-3.3
X2.2Y-3.4
X2.2Y-3.5
X2.2Y-3.6
X2.2Y-3.7
X2.3Y-3.3
X2.3Y-3.4
X2.3Y-3.5
X2.3Y-3.6
X2.3Y-3.7
X2.4Y-3.3
X2.4Y-3.4
X2.4Y-3.5
X2.4Y-3.6
X2.4Y-3.7
X2.5Y-3.3
X2.5Y-3.4
X2.5Y-3.5
X2.5Y-3.6
X2.5Y-3.7
X2.6Y-3.3
X2.6Y-3.4
X2.6Y-3.5
X2.6Y-3.6
X2.6Y-3.7
X10.7Y-6.3
X10.7Y-6.4
X10.7Y-6.5
X10.7Y-6.6
X10.7Y-6.7
X10.8Y-6.3
X10.8Y-6.4
X10.8Y-6.5
X10.8Y-6.6
X10.8Y-6.7
X10.9Y-6.3
X10.9Y-6.4
X10.9Y-6.5
X10.9Y-6.6
X10.9Y-6.7
X11.0Y-6.3
X11.0Y-6.4
X11.0Y-6.5
X11.0Y-6.6
X11.0Y-6.7
X11.1Y-6.3
X11.1Y-6.4
X11.1Y-6.5
X11.1Y-6.6
X11.1Y-6.7
X10.2Y-7.3
X10.2Y-7.4
X10.2Y-7.5
X10.2Y-7.6
X10.2Y-7.7
X10.3Y-7.3
X10.3Y-7.4
X10.3Y-7.5
X10.3Y-7.6
X10.3Y-7.7
X10.4Y-7.3
X10.4Y-7.4
X10.4Y-7.5
X10.4Y-7.6
X10.4Y-7.7
X10.5Y-7.3
X10.5Y-7.4
X10.5Y-7.5
X10.5Y-7.6
X10.5Y-7.7
X10.6Y-7.3
X10.6Y-7.4
X10.6Y-7.5
X10.6Y-7.6
X10.6Y-7.7
X8.2Y-1.8
X8.2Y-1.9
X8.2Y-2.0
X8.2Y-2.1
X8.2Y-2.2
X8.3Y-1.8
X8.3Y-1.9
X8.3Y-2.0
X8.3Y-2.1
X8.3Y-2.2
X8.4Y-1.8
X8.4Y-1.9
X8.4Y-2.0
X8.4Y-2.1
X8.4Y-2.2
X8.5Y-1.8
X8.5Y-1.9
X8.5Y-2.0
X8.5Y-2.1
X8.5Y-2.2
X8.6Y-1.8
X8.6Y-1.9
X8.6Y-2.0
X8.6Y-2.1
X8.6Y-2.2
X2.2Y-4.8
X2.2Y-4.9
X2.2Y-5.0
X2.2Y-5.1
X2.2Y-5.2
X2.3Y-4.8
X2.3Y-4.9
X2.3Y-5.0
X2.3Y-5.1
X2.3Y-5.2
X2.4Y-4.8
X2.4Y-4.9
X2.4Y-5.0
X2.4Y-5.1
X2.4Y-5.2
X2.5Y-4.8
X2.5Y-4.9
X2.5Y-5.0
X2.5Y-5.1
X2.5Y-5.2
X2.6Y-4.8
X2.6Y-4.9
X2.6Y-5.0
X2.6Y-5.1
X2.6Y-5.2
X1.7Y-4.8
X1.7Y-4.9
X1.7Y-5.0
X1.7Y-5.1
X1.7Y-5.2
X1.8Y-4.8
X1.8Y-4.9
X1.8Y-5.0
X1.8Y-5.1
X1.8Y-5.2
X1.9Y-4.8
X1.9Y-4.9
X1.9Y-5.0
X1.9Y-5.1
X1.9Y-5.2
X2.0Y-4.8
X2.0Y-4.9
X2.0Y-5.0
X2.0Y-5.1
X2.0Y-5.2
X2.1Y-4.8
X2.1Y-4.9
X2.1Y-5.0
X2.1Y-5.1
X2.1Y-5.2
X11.2Y-5.3
X11.2Y-5.4
X11.2Y-5.5
X11.2Y-5.6
X11.2Y-5.7
X11.3Y-5.3
X11.3Y-5.4
X11.3Y-5.5
X11.3Y-5.6
X11.3Y-5.7
X11.4Y-5.3
X11.4Y-5.4
X11.4Y-5.5
X11.4Y-5.6
X11.4Y-5.7
X11.5Y-5.3
X11.5Y-5.4
X11.5Y-5.5
X11.5Y-5.6
X11.5Y-5.7
X11.6Y-5.3
X11.6Y-5.4
X11.6Y-5.5
X11.6Y-5.6
X11.6Y-5.7
X8.2Y-4.8
X8.2Y-4.9
X8.2Y-5.0
X8.2Y-5.1
X8.2Y-5.2
X8.3Y-4.8
X8.3Y-4.9
X8.3Y-5.0
X8.3Y-5.1
X8.3Y-5.2
X8.4Y-4.8
X8.4Y-4.9
X8.4Y-5.0
X8.4Y-5.1
X8.4Y-5.2
X8.5Y-4.8
X8.5Y-4.9
X8.5Y-5.0
X8.5Y-5.1
X8.5Y-5.2
X8.6Y-4.8
X8.6Y-4.9
X8.6Y-5.0
X8.6Y-5.1
X8.6Y-5.2
X7.7Y-6.3
X7.7Y-6.4
X7.7Y-6.5
X7.7Y-6.6
X7.7Y-6.7
X7.8Y-6.3
X7.8Y-6.4
X7.8Y-6.5
X7.8Y-6.6
X7.8Y-6.7
X7.9Y-6.3
X7.9Y-6.4
X7.9Y-6.5
X7.9Y-6.6
X7.9Y-6.7
X8.0Y-6.3
X8.0Y-6.4
X8.0Y-6.5
X8.0Y-6.6
X8.0Y-6.7
X8.1Y-6.3
X8.1Y-6.4
X8.1Y-6.5
X8.1Y-6.6
X8.1Y-6.7
X3.2Y-6.8
X3.2Y-6.9
X3.2Y-7.0
X3.2Y-7.1
X3.2Y-7.2
X3.3Y-6.8
X3.3Y-6.9
X3.3Y-7.0
X3.3Y-7.1
X3.3Y-7.2
X3.4Y-6.8
X3.4Y-6.9
X3.4Y-7.0
X3.4Y-7.1
X3.4Y-7.2
X3.5Y-6.8
X3.5Y-6.9
X3.5Y-7.0
X3.5Y-7.1
X3.5Y-7.2
X3.6Y-6.8
X3.6Y-6.9
X3.6Y-7.0
X3.6Y-7.1
X3.6Y-7.2
X1.2Y-5.8
X1.2Y-5.9
X1.2Y-6.0
X1.2Y-6.1
X1.2Y-6.2
X1.3Y-5.8
X1.3Y-5.9
X1.3Y-6.0
X1.3Y-6.1
X1.3Y-6.2
X1.4Y-5.8
X1.4Y-5.9
X1.4Y-6.0
X1.4Y-6.1
X1.4Y-6.2
X1.5Y-5.8
X1.5Y-5.9
X1.5Y-6.0
X1.5Y-6.1
X1.5Y-6.2
X1.6Y-5.8
X1.6Y-5.9
X1.6Y-6.0
X1.6Y-6.1
X1.6Y-6.2
X7.7Y-7.8
X7.7Y-7.9
X7.7Y-8.0
X7.7Y-8.1
X7.7Y-8.2
X7.8Y-7.8
X7.8Y-7.9
X7.8Y-8.0
X7.8Y-8.1
X7.8Y-8.2
X7.9Y-7.8
X7.9Y-7.9
X7.9Y-8.0
X7.9Y-8.1
X7.9Y-8.2
X8.0Y-7.8
X8.0Y-7.9
X8.0Y-8.0
X8.0Y-8.1
X8.0Y-8.2
X8.1Y-7.8
X8.1Y-7.9
X8.1Y-8.0
X8.1Y-8.1
X8.1Y-8.2
X11.2Y-3.8
X11.2Y-3.9
X11.2Y-4.0
X11.2Y-4.1
X11.2Y-4.2
X11.3Y-3.8
X11.3Y-3.9
X11.3Y-4.0
X11.3Y-4.1
X11.3Y-4.2
X11.4Y-3.8
X11.4Y-3.9
X11.4Y-4.0
X11.4Y-4.1
X11.4Y-4.2
X11.5Y-3.8
X11.5Y-3.9
X11.5Y-4.0
X11.5Y-4.1
X11.5Y-4.2
X11.6Y-3.8
X11.6Y-3.9
X11.6Y-4.0
X11.6Y-4.1
X11.6Y-4.2
X11.2Y-4.3
X11.2Y-4.4
X11.2Y-4.5
X11.2Y-4.6
X11.2Y-4.7
X11.3Y-4.3
X11.3Y-4.4
X11.3Y-4.5
X11.3Y-4.6
X11.3Y-4.7
X11.4Y-4.3
X11.4Y-4.4
X11.4Y-4.5
X11.4Y-4.6
X11.4Y-4.7
X11.5Y-4.3
X11.5Y-4.4
X11.5Y-4.5
X11.5Y-4.6
X11.5Y-4.7
X11.6Y-4.3
X11.6Y-4.4
X11.6Y-4.5
X11.6Y-4.6
X11.6Y-4.7
X9.2Y-2.8
X9.2Y-2.9
X9.2Y-3.0
X9.2Y-3.1
X9.2Y-3.2
X9.3Y-2.8
X9.3Y-2.9
X9.3Y-3.0
X9.3Y-3.1
X9.3Y-3.2
X9.4Y-2.8
X9.4Y-2.9
X9.4Y-3.0
X9.4Y-3.1
X9.4Y-3.2
X9.5Y-2.8
X9.5Y-2.9
X9.5Y-3.0
X9.5Y-3.1
X9.5Y-3.2
X9.6Y-2.8
X9.6Y-2.9
X9.6Y-3.0
X9.6Y-3.1
X9.6Y-3.2
X6.2Y-3.8
X6.2Y-3.9
X6.2Y-4.0
X6.2Y-4.1
X6.2Y-4.2
X6.3Y-3.8
X6.3Y-3.9
X6.3Y-4.0
X6.3Y-4.1
X6.3Y-4.2
X6.4Y-3.8
X6.4Y-3.9
X6.4Y-4.0
X6.4Y-4.1
X6.4Y-4.2
X6.5Y-3.8
X6.5Y-3.9
X6.5Y-4.0
X6.5Y-4.1
X6.5Y-4.2
X6.6Y-3.8
X6.6Y-3.9
X6.6Y-4.0
X6.6Y-4.1
X6.6Y-4.2
X1.2Y-2.8
X1.2Y-2.9
X1.2Y-3.0
X1.2Y-3.1
X1.2Y-3.2
X1.3Y-2.8
X1.3Y-2.9
X1.3Y-3.0
X1.3Y-3.1
X1.3Y-3.2
X1.4Y-2.8
X1.4Y-2.9
X1.4Y-3.0
X1.4Y-3.1
X1.4Y-3.2
X1.5Y-2.8
X1.5Y-2.9
X1.5Y-3.0
X1.5Y-3.1
X1.5Y-3.2
X1.6Y-2.8
X1.6Y-2.9
X1.6Y-3.0
X1.6Y-3.1
X1.6Y-3.2
X11.7Y-7.3
X11.7Y-7.4
X11.7Y-7.5
X11.7Y-7.6
X11.7Y-7.7
X11.8Y-7.3
X11.8Y-7.4
X11.8Y-7.5
X11.8Y-7.6
X11.8Y-7.7
X11.9Y-7.3
X11.9Y-7.4
X11.9Y-7.5
X11.9Y-7.6
X11.9Y-7.7
X12.0Y-7.3
X12.0Y-7.4
X12.0Y-7.5
X12.0Y-7.6
X12.0Y-7.7
X12.1Y-7.3
X12.1Y-7.4
X12.1Y-7.5
X12.1Y-7.6
X12.1Y-7.7
X10.7Y-7.3
X10.7Y-7.4
X10.7Y-7.5
X10.7Y-7.6
X10.7Y-7.7
X10.8Y-7.3
X10.8Y-7.4
X10.8Y-7.5
X10.8Y-7.6
X10.8Y-7.7
X10.9Y-7.3
X10.9Y-7.4
X10.9Y-7.5
X10.9Y-7.6
X10.9Y-7.7
X11.0Y-7.3
X11.0Y-7.4
X11.0Y-7.5
X11.0Y-7.6
X11.0Y-7.7
X11.1Y-7.3
X11.1Y-7.4
X11.1Y-7.5
X11.1Y-7.6
X11.1Y-7.7
X5.7Y-3.3
X5.7Y-3.4
X5.7Y-3.5
X5.7Y-3.6
X5.7Y-3.7
X5.8Y-3.3
X5.8Y-3.4
X5.8Y-3.5
X5.8Y-3.6
X5.8Y-3.7
X5.9Y-3.3
X5.9Y-3.4
X5.9Y-3.5
X5.9Y-3.6
X5.9Y-3.7
X6.0Y-3.3
X6.0Y-3.4
X6.0Y-3.5
X6.0Y-3.6
X6.0Y-3.7
X6.1Y-3.3
X6.1Y-3.4
X6.1Y-3.5
X6.1Y-3.6
X6.1Y-3.7
X3.2Y-6.3
X3.2Y-6.4
X3.2Y-6.5
X3.2Y-6.6
X3.2Y-6.7
X3.3Y-6.3
X3.3Y-6.4
X3.3Y-6.5
X3.3Y-6.6
X3.3Y-6.7
X3.4Y-6.3
X3.4Y-6.4
X3.4Y-6.5
X3.4Y-6.6
X3.4Y-6.7
X3.5Y-6.3
X3.5Y-6.4
X3.5Y-6.5
X3.5Y-6.6
X3.5Y-6.7
X3.6Y-6.3
X3.6Y-6.4
X3.6Y-6.5
X3.6Y-6.6
X3.6Y-6.7
X5.2Y-7.8
X5.2Y-7.9
X5.2Y-8.0
X5.2Y-8.1
X5.2Y-8.2
X5.3Y-7.8
X5.3Y-7.9
X5.3Y-8.0
X5.3Y-8.1
X5.3Y-8.2
X5.4Y-7.8
X5.4Y-7.9
X5.4Y-8.0
X5.4Y-8.1
X5.4Y-8.2
X5.5Y-7.8
X5.5Y-7.9
X5.5Y-8.0
X5.5Y-8.1
X5.5Y-8.2
X5.6Y-7.8
X5.6Y-7.9
X5.6Y-8.0
X5.6Y-8.1
X5.6Y-8.2
X5.7Y-7.3
X5.7Y-7.4
X5.7Y-7.5
X5.7Y-7.6
X5.7Y-7.7
X5.8Y-7.3
X5.8Y-7.4
X5.8Y-7.5
X5.8Y-7.6
X5.8Y-7.7
X5.9Y-7.3
X5.9Y-7.4
X5.9Y-7.5
X5.9Y-7.6
X5.9Y-7.7
X6.0Y-7.3
X6.0Y-7.4
X6.0Y-7.5
X6.0Y-7.6
X6.0Y-7.7
X6.1Y-7.3
X6.1Y-7.4
X6.1Y-7.5
X6.1Y-7.6
X6.1Y-7.7
X1.2Y-2.3
X1.2Y-2.4
X1.2Y-2.5
X1.2Y-2.6
X1.2Y-2.7
X1.3Y-2.3
X1.3Y-2.4
X1.3Y-2.5
X1.3Y-2.6
X1.3Y-2.7
X1.4Y-2.3
X1.4Y-2.4
X1.4Y-2.5
X1.4Y-2.6
X1.4Y-2.7
X1.5Y-2.3
X1.5Y-2.4
X1.5Y-2.5
X1.5Y-2.6
X1.5Y-2.7
X1.6Y-2.3
X1.6Y-2.4
X1.6Y-2.5
X1.6Y-2.6
X1.6Y-2.7
X12.2Y-2.8
X12.2Y-2.9
X12.2Y-3.0
X12.2Y-3.1
X12.2Y-3.2
X12.3Y-2.8
X12.3Y-2.9
X12.3Y-3.0
X12.3Y-3.1
X12.3Y-3.2
X12.4Y-2.8
X12.4Y-2.9
X12.4Y-3.0
X12.4Y-3.1
X12.4Y-3.2
X12.5Y-2.8
X12.5Y-2.9
X12.5Y-3.0
X12.5Y-3.1
X12.5Y-3.2
X12.6Y-2.8
X12.6Y-2.9
X12.6Y-3.0
X12.6Y-3.1
X12.6Y-3.2
X5.7Y-4.8
X5.7Y-4.9
X5.7Y-5.0
X5.7Y-5.1
X5.7Y-5.2
X5.8Y-4.8
X5.8Y-4.9
X5.8Y-5.0
X5.8Y-5.1
X5.8Y-5.2
X5.9Y-4.8
X5.9Y-4.9
X5.9Y-5.0
X5.9Y-5.1
X5.9Y-5.2
X6.0Y-4.8
X6.0Y-4.9
X6.0Y-5.0
X6.0Y-5.1
X6.0Y-5.2
X6.1Y-4.8
X6.1Y-4.9
X6.1Y-5.0
X6.1Y-5.1
X6.1Y-5.2
X8.2Y-3.3
X8.2Y-3.4
X8.2Y-3.5
X8.2Y-3.6
X8.2Y-3.7
X8.3Y-3.3
X8.3Y-3.4
X8.3Y-3.5
X8.3Y-3.6
X8.3Y-3.7
X8.4Y-3.3
X8.4Y-3.4
X8.4Y-3.5
X8.4Y-3.6
X8.4Y-3.7
X8.5Y-3.3
X8.5Y-3.4
X8.5Y-3.5
X8.5Y-3.6
X8.5Y-3.7
X8.6Y-3.3
X8.6Y-3.4
X8.6Y-3.5
X8.6Y-3.6
X8.6Y-3.7
X1.7Y-6.3
X1.7Y-6.4
X1.7Y-6.5
X1.7Y-6.6
X1.7Y-6.7
X1.8Y-6.3
X1.8Y-6.4
X1.8Y-6.5
X1.8Y-6.6
X1.8Y-6.7
X1.9Y-6.3
X1.9Y-6.4
X1.9Y-6.5
X1.9Y-6.6
X1.9Y-6.7
X2.0Y-6.3
X2.0Y-6.4
X2.0Y-6.5
X2.0Y-6.6
X2.0Y-6.7
X2.1Y-6.3
X2.1Y-6.4
X2.1Y-6.5
X2.1Y-6.6
X2.1Y-6.7
X9.7Y-5.8
X9.7Y-5.9
X9.7Y-6.0
X9.7Y-6.1
X9.7Y-6.2
X9.8Y-5.8
X9.8Y-5.9
X9.8Y-6.0
X9.8Y-6.1
X9.8Y-6.2
X9.9Y-5.8
X9.9Y-5.9
X9.9Y-6.0
X9.9Y-6.1
X9.9Y-6.2
X10.0Y-5.8
X10.0Y-5.9
X10.0Y-6.0
X10.0Y-6.1
X10.0Y-6.2
X10.1Y-5.8
X10.1Y-5.9
X10.1Y-6.0
X10.1Y-6.1
X10.1Y-6.2
X11.2Y-7.3
X11.2Y-7.4
X11.2Y-7.5
X11.2Y-7.6
X11.2Y-7.7
X11.3Y-7.3
X11.3Y-7.4
X11.3Y-7.5
X11.3Y-7.6
X11.3Y-7.7
X11.4Y-7.3
X11.4Y-7.4
X11.4Y-7.5
X11.4Y-7.6
X11.4Y-7.7
X11.5Y-7.3
X11.5Y-7.4
X11.5Y-7.5
X11.5Y-7.6
X11.5Y-7.7
X11.6Y-7.3
X11.6Y-7.4
X11.6Y-7.5
X11.6Y-7.6
X11.6Y-7.7
X4.7Y-3.8
X4.7Y-3.9
X4.7Y-4.0
X4.7Y-4.1
X4.7Y-4.2
X4.8Y-3.8
X4.8Y-3.9
X4.8Y-4.0
X4.8Y-4.1
X4.8Y-4.2
X4.9Y-3.8
X4.9Y-3.9
X4.9Y-4.0
X4.9Y-4.1
X4.9Y-4.2
X5.0Y-3.8
X5.0Y-3.9
X5.0Y-4.0
X5.0Y-4.1
X5.0Y-4.2
X5.1Y-3.8
X5.1Y-3.9
X5.1Y-4.0
X5.1Y-4.1
X5.1Y-4.2
X4.7Y-1.8
X4.7Y-1.9
X4.7Y-2.0
X4.7Y-2.1
X4.7Y-2.2
X4.8Y-1.8
X4.8Y-1.9
X4.8Y-2.0
X4.8Y-2.1
X4.8Y-2.2
X4.9Y-1.8
X4.9Y-1.9
X4.9Y-2.0
X4.9Y-2.1
X4.9Y-2.2
X5.0Y-1.8
X5.0Y-1.9
X5.0Y-2.0
X5.0Y-2.1
X5.0Y-2.2
X5.1Y-1.8
X5.1Y-1.9
X5.1Y-2.0
X5.1Y-2.1
X5.1Y-2.2
X10.2Y-1.8
X10.2Y-1.9
X10.2Y-2.0
X10.2Y-2.1
X10.2Y-2.2
X10.3Y-1.8
X10.3Y-1.9
X10.3Y-2.0
X10.3Y-2.1
X10.3Y-2.2
X10.4Y-1.8
X10.4Y-1.9
X10.4Y-2.0
X10.4Y-2.1
X10.4Y-2.2
X10.5Y-1.8
X10.5Y-1.9
X10.5Y-2.0
X10.5Y-2.1
X10.5Y-2.2
X10.6Y-1.8
X10.6Y-1.9
X10.6Y-2.0
X10.6Y-2.1
X10.6Y-2.2
X10.7Y-3.3
X10.7Y-3.4
X10.7Y-3.5
X10.7Y-3.6
X10.7Y-3.7
X10.8Y-3.3
X10.8Y-3.4
X10.8Y-3.5
X10.8Y-3.6
X10.8Y-3.7
X10.9Y-3.3
X10.9Y-3.4
X10.9Y-3.5
X10.9Y-3.6
X10.9Y-3.7
X11.0Y-3.3
X11.0Y-3.4
X11.0Y-3.5
X11.0Y-3.6
X11.0Y-3.7
X11.1Y-3.3
X11.1Y-3.4
X11.1Y-3.5
X11.1Y-3.6
X11.1Y-3.7
X11.7Y-6.3
X11.7Y-6.4
X11.7Y-6.5
X11.7Y-6.6
X11.7Y-6.7
X11.8Y-6.3
X11.8Y-6.4
X11.8Y-6.5
X11.8Y-6.6
X11.8Y-6.7
X11.9Y-6.3
X11.9Y-6.4
X11.9Y-6.5
X11.9Y-6.6
X11.9Y-6.7
X12.0Y-6.3
X12.0Y-6.4
X12.0Y-6.5
X12.0Y-6.6
X12.0Y-6.7
X12.1Y-6.3
X12.1Y-6.4
X12.1Y-6.5
X12.1Y-6.6
X12.1Y-6.7
X5.2Y-6.3
X5.2Y-6.4
X5.2Y-6.5
X5.2Y-6.6
X5.2Y-6.7
X5.3Y-6.3
X5.3Y-6.4
X5.3Y-6.5
X5.3Y-6.6
X5.3Y-6.7
X5.4Y-6.3
X5.4Y-6.4
X5.4Y-6.5
X5.4Y-6.6
X5.4Y-6.7
X5.5Y-6.3
X5.5Y-6.4
X5.5Y-6.5
X5.5Y-6.6
X5.5Y-6.7
X5.6Y-6.3
X5.6Y-6.4
X5.6Y-6.5
X5.6Y-6.6
X5.6Y-6.7
X4.2Y-4.8
X4.2Y-4.9
X4.2Y-5.0
X4.2Y-5.1
X4.2Y-5.2
X4.3Y-4.8
X4.3Y-4.9
X4.3Y-5.0
X4.3Y-5.1
X4.3Y-5.2
X4.4Y-4.8
X4.4Y-4.9
X4.4Y-5.0
X4.4Y-5.1
X4.4Y-5.2
X4.5Y-4.8
X4.5Y-4.9
X4.5Y-5.0
X4.5Y-5.1
X4.5Y-5.2
X4.6Y-4.8
X4.6Y-4.9
X4.6Y-5.0
X4.6Y-5.1
X4.6Y-5.2
X2.7Y-1.8
X2.7Y-1.9
X2.7Y-2.0
X2.7Y-2.1
X2.7Y-2.2
X2.8Y-1.8
X2.8Y-1.9
X2.8Y-2.0
X2.8Y-2.1
X2.8Y-2.2
X2.9Y-1.8
X2.9Y-1.9
X2.9Y-2.0
X2.9Y-2.1
X2.9Y-2.2
X3.0Y-1.8
X3.0Y-1.9
X3.0Y-2.0
X3.0Y-2.1
X3.0Y-2.2
X3.1Y-1.8
X3.1Y-1.9
X3.1Y-2.0
X3.1Y-2.1
X3.1Y-2.2
X3.2Y-7.3
X3.2Y-7.4
X3.2Y-7.5
X3.2Y-7.6
X3.2Y-7.7
X3.3Y-7.3
X3.3Y-7.4
X3.3Y-7.5
X3.3Y-7.6
X3.3Y-7.7
X3.4Y-7.3
X3.4Y-7.4
X3.4Y-7.5
X3.4Y-7.6
X3.4Y-7.7
X3.5Y-7.3
X3.5Y-7.4
X3.5Y-7.5
X3.5Y-7.6
X3.5Y-7.7
X3.6Y-7.3
X3.6Y-7.4
X3.6Y-7.5
X3.6Y-7.6
X3.6Y-7.7
X3.7Y-4.8
X3.7Y-4.9
X3.7Y-5.0
X3.7Y-5.1
X3.7Y-5.2
X3.8Y-4.8
X3.8Y-4.9
X3.8Y-5.0
X3.8Y-5.1
X3.8Y-5.2
X3.9Y-4.8
X3.9Y-4.9
X3.9Y-5.0
X3.9Y-5.1
X3.9Y-5.2
X4.0Y-4.8
X4.0Y-4.9
X4.0Y-5.0
X4.0Y-5.1
X4.0Y-5.2
X4.1Y-4.8
X4.1Y-4.9
X4.1Y-5.0
X4.1Y-5.1
X4.1Y-5.2
X1.7Y-3.3
X1.7Y-3.4
X1.7Y-3.5
X1.7Y-3.6
X1.7Y-3.7
X1.8Y-3.3
X1.8Y-3.4
X1.8Y-3.5
X1.8Y-3.6
X1.8Y-3.7
X1.9Y-3.3
X1.9Y-3.4
X1.9Y-3.5
X1.9Y-3.6
X1.9Y-3.7
X2.0Y-3.3
X2.0Y-3.4
X2.0Y-3.5
X2.0Y-3.6
X2.0Y-3.7
X2.1Y-3.3
X2.1Y-3.4
X2.1Y-3.5
X2.1Y-3.6
X2.1Y-3.7
X11.2Y-5.8
X11.2Y-5.9
X11.2Y-6.0
X11.2Y-6.1
X11.2Y-6.2
X11.3Y-5.8
X11.3Y-5.9
X11.3Y-6.0
X11.3Y-6.1
X11.3Y-6.2
X11.4Y-5.8
X11.4Y-5.9
X11.4Y-6.0
X11.4Y-6.1
X11.4Y-6.2
X11.5Y-5.8
X11.5Y-5.9
X11.5Y-6.0
X11.5Y-6.1
X11.5Y-6.2
X11.6Y-5.8
X11.6Y-5.9
X11.6Y-6.0
X11.6Y-6.1
X11.6Y-6.2
X6.7Y-7.3
X6.7Y-7.4
X6.7Y-7.5
X6.7Y-7.6
X6.7Y-7.7
X6.8Y-7.3
X6.8Y-7.4
X6.8Y-7.5
X6.8Y-7.6
X6.8Y-7.7
X6.9Y-7.3
X6.9Y-7.4
X6.9Y-7.5
X6.9Y-7.6
X6.9Y-7.7
X7.0Y-7.3
X7.0Y-7.4
X7.0Y-7.5
X7.0Y-7.6
X7.0Y-7.7
X7.1Y-7.3
X7.1Y-7.4
X7.1Y-7.5
X7.1Y-7.6
X7.1Y-7.7
X1.2Y-5.3
X1.2Y-5.4
X1.2Y-5.5
X1.2Y-5.6
X1.2Y-5.7
X1.3Y-5.3
X1.3Y-5.4
X1.3Y-5.5
X1.3Y-5.6
X1.3Y-5.7
X1.4Y-5.3
X1.4Y-5.4
X1.4Y-5.5
X1.4Y-5.6
X1.4Y-5.7
X1.5Y-5.3
X1.5Y-5.4
X1.5Y-5.5
X1.5Y-5.6
X1.5Y-5.7
X1.6Y-5.3
X1.6Y-5.4
X1.6Y-5.5
X1.6Y-5.6
X1.6Y-5.7
X7.7Y-4.3
X7.7Y-4.4
X7.7Y-4.5
X7.7Y-4.6
X7.7Y-4.7
X7.8Y-4.3
X7.8Y-4.4
X7.8Y-4.5
X7.8Y-4.6
X7.8Y-4.7
X7.9Y-4.3
X7.9Y-4.4
X7.9Y-4.5
X7.9Y-4.6
X7.9Y-4.7
X8.0Y-4.3
X8.0Y-4.4
X8.0Y-4.5
X8.0Y-4.6
X8.0Y-4.7
X8.1Y-4.3
X8.1Y-4.4
X8.1Y-4.5
X8.1Y-4.6
X8.1Y-4.7
X11.2Y-4.8
X11.2Y-4.9
X11.2Y-5.0
X11.2Y-5.1
X11.2Y-5.2
X11.3Y-4.8
X11.3Y-4.9
X11.3Y-5.0
X11.3Y-5.1
X11.3Y-5.2
X11.4Y-4.8
X11.4Y-4.9
X11.4Y-5.0
X11.4Y-5.1
X11.4Y-5.2
X11.5Y-4.8
X11.5Y-4.9
X11.5Y-5.0
X11.5Y-5.1
X11.5Y-5.2
X11.6Y-4.8
X11.6Y-4.9
X11.6Y-5.0
X11.6Y-5.1
X11.6Y-5.2
X4.7Y-7.3
X4.7Y-7.4
X4.7Y-7.5
X4.7Y-7.6
X4.7Y-7.7
X4.8Y-7.3
X4.8Y-7.4
X4.8Y-7.5
X4.8Y-7.6
X4.8Y-7.7
X4.9Y-7.3
X4.9Y-7.4
X4.9Y-7.5
X4.9Y-7.6
X4.9Y-7.7
X5.0Y-7.3
X5.0Y-7.4
X5.0Y-7.5
X5.0Y-7.6
X5.0Y-7.7
X5.1Y-7.3
X5.1Y-7.4
X5.1Y-7.5
X5.1Y-7.6
X5.1Y-7.7
X3.7Y-3.8
X3.7Y-3.9
X3.7Y-4.0
X3.7Y-4.1
X3.7Y-4.2
X3.8Y-3.8
X3.8Y-3.9
X3.8Y-4.0
X3.8Y-4.1
X3.8Y-4.2
X3.9Y-3.8
X3.9Y-3.9
X3.9Y-4.0
X3.9Y-4.1
X3.9Y-4.2
X4.0Y-3.8
X4.0Y-3.9
X4.0Y-4.0
X4.0Y-4.1
X4.0Y-4.2
X4.1Y-3.8
X4.1Y-3.9
X4.1Y-4.0
X4.1Y-4.1
X4.1Y-4.2
X3.7Y-1.8
X3.7Y-1.9
X3.7Y-2.0
X3.7Y-2.1
X3.7Y-2.2
X3.8Y-1.8
X3.8Y-1.9
X3.8Y-2.0
X3.8Y-2.1
X3.8Y-2.2
X3.9Y-1.8
X3.9Y-1.9
X3.9Y-2.0
X3.9Y-2.1
X3.9Y-2.2
X4.0Y-1.8
X4.0Y-1.9
X4.0Y-2.0
X4.0Y-2.1
X4.0Y-2.2
X4.1Y-1.8
X4.1Y-1.9
X4.1Y-2.0
X4.1Y-2.1
X4.1Y-2.2
X9.7Y-4.3
X9.7Y-4.4
X9.7Y-4.5
X9.7Y-4.6
X9.7Y-4.7
X9.8Y-4.3
X9.8Y-4.4
X9.8Y-4.5
X9.8Y-4.6
X9.8Y-4.7
X9.9Y-4.3
X9.9Y-4.4
X9.9Y-4.5
X9.9Y-4.6
X9.9Y-4.7
X10.0Y-4.3
X10.0Y-4.4
X10.0Y-4.5
X10.0Y-4.6
X10.0Y-4.7
X10.1Y-4.3
X10.1Y-4.4
X10.1Y-4.5
X10.1Y-4.6
X10.1Y-4.7
X6.2Y-2.3
X6.2Y-2.4
X6.2Y-2.5
X6.2Y-2.6
X6.2Y-2.7
X6.3Y-2.3
X6.3Y-2.4
X6.3Y-2.5
X6.3Y-2.6
X6.3Y-2.7
X6.4Y-2.3
X6.4Y-2.4
X6.4Y-2.5
X6.4Y-2.6
X6.4Y-2.7
X6.5Y-2.3
X6.5Y-2.4
X6.5Y-2.5
X6.5Y-2.6
X6.5Y-2.7
X6.6Y-2.3
X6.6Y-2.4
X6.6Y-2.5
X6.6Y-2.6
X6.6Y-2.7
X1.7Y-5.3
X1.7Y-5.4
X1.7Y-5.5
X1.7Y-5.6
X1.7Y-5.7
X1.8Y-5.3
X1.8Y-5.4
X1.8Y-5.5
X1.8Y-5.6
X1.8Y-5.7
X1.9Y-5.3
X1.9Y-5.4
X1.9Y-5.5
X1.9Y-5.6
X1.9Y-5.7
X2.0Y-5.3
X2.0Y-5.4
X2.0Y-5.5
X2.0Y-5.6
X2.0Y-5.7
X2.1Y-5.3
X2.1Y-5.4
X2.1Y-5.5
X2.1Y-5.6
X2.1Y-5.7
X9.2Y-6.3
X9.2Y-6.4
X9.2Y-6.5
X9.2Y-6.6
X9.2Y-6.7
X9.3Y-6.3
X9.3Y-6.4
X9.3Y-6.5
X9.3Y-6.6
X9.3Y-6.7
X9.4Y-6.3
X9.4Y-6.4
X9.4Y-6.5
X9.4Y-6.6
X9.4Y-6.7
X9.5Y-6.3
X9.5Y-6.4
X9.5Y-6.5
X9.5Y-6.6
X9.5Y-6.7
X9.6Y-6.3
X9.6Y-6.4
X9.6Y-6.5
X9.6Y-6.6
X9.6Y-6.7
X5.2Y-1.8
X5.2Y-1.9
X5.2Y-2.0
X5.2Y-2.1
X5.2Y-2.2
X5.3Y-1.8
X5.3Y-1.9
X5.3Y-2.0
X5.3Y-2.1
X5.3Y-2.2
X5.4Y-1.8
X5.4Y-1.9
X5.4Y-2.0
X5.4Y-2.1
X5.4Y-2.2
X5.5Y-1.8
X5.5Y-1.9
X5.5Y-2.0
X5.5Y-2.1
X5.5Y-2.2
X5.6Y-1.8
X5.6Y-1.9
X5.6Y-2.0
X5.6Y-2.1
X5.6Y-2.2
X3.2Y-7.8
X3.2Y-7.9
X3.2Y-8.0
X3.2Y-8.1
X3.2Y-8.2
X3.3Y-7.8
X3.3Y-7.9
X3.3Y-8.0
X3.3Y-8.1
X3.3Y-8.2
X3.4Y-7.8
X3.4Y-7.9
X3.4Y-8.0
X3.4Y-8.1
X3.4Y-8.2
X3.5Y-7.8
X3.5Y-7.9
X3.5Y-8.0
X3.5Y-8.1
X3.5Y-8.2
X3.6Y-7.8
X3.6Y-7.9
X3.6Y-8.0
X3.6Y-8.1
X3.6Y-8.2
X4.2Y-4.3
X4.2Y-4.4
X4.2Y-4.5
X4.2Y-4.6
X4.2Y-4.7
X4.3Y-4.3
X4.3Y-4.4
X4.3Y-4.5
X4.3Y-4.6
X4.3Y-4.7
X4.4Y-4.3
X4.4Y-4.4
X4.4Y-4.5
X4.4Y-4.6
X4.4Y-4.7
X4.5Y-4.3
X4.5Y-4.4
X4.5Y-4.5
X4.5Y-4.6
X4.5Y-4.7
X4.6Y-4.3
X4.6Y-4.4
X4.6Y-4.5
X4.6Y-4.6
X4.6Y-4.7
X2.2Y-4.3
X2.2Y-4.4
X2.2Y-4.5
X2.2Y-4.6
X2.2Y-4.7
X2.3Y-4.3
X2.3Y-4.4
X2.3Y-4.5
X2.3Y-4.6
X2.3Y-4.7
X2.4Y-4.3
X2.4Y-4.4
X2.4Y-4.5
X2.4Y-4.6
X2.4Y-4.7
X2.5Y-4.3
X2.5Y-4.4
X2.5Y-4.5
X2.5Y-4.6
X2.5Y-4.7
X2.6Y-4.3
X2.6Y-4.4
X2.6Y-4.5
X2.6Y-4.6
X2.6Y-4.7
X9.2Y-5.3
X9.2Y-5.4
X9.2Y-5.5
X9.2Y-5.6
X9.2Y-5.7
X9.3Y-5.3
X9.3Y-5.4
X9.3Y-5.5
X9.3Y-5.6
X9.3Y-5.7
X9.4Y-5.3
X9.4Y-5.4
X9.4Y-5.5
X9.4Y-5.6
X9.4Y-5.7
X9.5Y-5.3
X9.5Y-5.4
X9.5Y-5.5
X9.5Y-5.6
X9.5Y-5.7
X9.6Y-5.3
X9.6Y-5.4
X9.6Y-5.5
X9.6Y-5.6
X9.6Y-5.7
X12.2Y-4.8
X12.2Y-4.9
X12.2Y-5.0
X12.2Y-5.1
X12.2Y-5.2
X12.3Y-4.8
X12.3Y-4.9
X12.3Y-5.0
X12.3Y-5.1
X12.3Y-5.2
X12.4Y-4.8
X12.4Y-4.9
X12.4Y-5.0
X12.4Y-5.1
X12.4Y-5.2
X12.5Y-4.8
X12.5Y-4.9
X12.5Y-5.0
X12.5Y-5.1
X12.5Y-5.2
X12.6Y-4.8
X12.6Y-4.9
X12.6Y-5.0
X12.6Y-5.1
X12.6Y-5.2
X8.7Y-7.3
X8.7Y-7.4
X8.7Y-7.5
X8.7Y-7.6
X8.7Y-7.7
X8.8Y-7.3
X8.8Y-7.4
X8.8Y-7.5
X8.8Y-7.6
X8.8Y-7.7
X8.9Y-7.3
X8.9Y-7.4
X8.9Y-7.5
X8.9Y-7.6
X8.9Y-7.7
X9.0Y-7.3
X9.0Y-7.4
X9.0Y-7.5
X9.0Y-7.6
X9.0Y-7.7
X9.1Y-7.3
X9.1Y-7.4
X9.1Y-7.5
X9.1Y-7.6
X9.1Y-7.7
X5.2Y-5.3
X5.2Y-5.4
X5.2Y-5.5
X5.2Y-5.6
X5.2Y-5.7
X5.3Y-5.3
X5.3Y-5.4
X5.3Y-5.5
X5.3Y-5.6
X5.3Y-5.7
X5.4Y-5.3
X5.4Y-5.4
X5.4Y-5.5
X5.4Y-5.6
X5.4Y-5.7
X5.5Y-5.3
X5.5Y-5.4
X5.5Y-5.5
X5.5Y-5.6
X5.5Y-5.7
X5.6Y-5.3
X5.6Y-5.4
X5.6Y-5.5
X5.6Y-5.6
X5.6Y-5.7
X8.7Y-6.8
X8.7Y-6.9
X8.7Y-7.0
X8.7Y-7.1
X8.7Y-7.2
X8.8Y-6.8
X8.8Y-6.9
X8.8Y-7.0
X8.8Y-7.1
X8.8Y-7.2
X8.9Y-6.8
X8.9Y-6.9
X8.9Y-7.0
X8.9Y-7.1
X8.9Y-7.2
X9.0Y-6.8
X9.0Y-6.9
X9.0Y-7.0
X9.0Y-7.1
X9.0Y-7.2
X9.1Y-6.8
X9.1Y-6.9
X9.1Y-7.0
X9.1Y-7.1
X9.1Y-7.2
X9.2Y-3.8
X9.2Y-3.9
X9.2Y-4.0
X9.2Y-4.1
X9.2Y-4.2
X9.3Y-3.8
X9.3Y-3.9
X9.3Y-4.0
X9.3Y-4.1
X9.3Y-4.2
X9.4Y-3.8
X9.4Y-3.9
X9.4Y-4.0
X9.4Y-4.1
X9.4Y-4.2
X9.5Y-3.8
X9.5Y-3.9
X9.5Y-4.0
X9.5Y-4.1
X9.5Y-4.2
X9.6Y-3.8
X9.6Y-3.9
X9.6Y-4.0
X9.6Y-4.1
X9.6Y-4.2
X9.7Y-5.3
X9.7Y-5.4
X9.7Y-5.5
X9.7Y-5.6
X9.7Y-5.7
X9.8Y-5.3
X9.8Y-5.4
X9.8Y-5.5
X9.8Y-5.6
X9.8Y-5.7
X9.9Y-5.3
X9.9Y-5.4
X9.9Y-5.5
X9.9Y-5.6
X9.9Y-5.7
X10.0Y-5.3
X10.0Y-5.4
X10.0Y-5.5
X10.0Y-5.6
X10.0Y-5.7
X10.1Y-5.3
X10.1Y-5.4
X10.1Y-5.5
X10.1Y-5.6
X10.1Y-5.7
X8.2Y-5.8
X8.2Y-5.9
X8.2Y-6.0
X8.2Y-6.1
X8.2Y-6.2
X8.3Y-5.8
X8.3Y-5.9
X8.3Y-6.0
X8.3Y-6.1
X8.3Y-6.2
X8.4Y-5.8
X8.4Y-5.9
X8.4Y-6.0
X8.4Y-6.1
X8.4Y-6.2
X8.5Y-5.8
X8.5Y-5.9
X8.5Y-6.0
X8.5Y-6.1
X8.5Y-6.2
X8.6Y-5.8
X8.6Y-5.9
X8.6Y-6.0
X8.6Y-6.1
X8.6Y-6.2
X4.7Y-6.3
X4.7Y-6.4
X4.7Y-6.5
X4.7Y-6.6
X4.7Y-6.7
X4.8Y-6.3
X4.8Y-6.4
X4.8Y-6.5
X4.8Y-6.6
X4.8Y-6.7
X4.9Y-6.3
X4.9Y-6.4
X4.9Y-6.5
X4.9Y-6.6
X4.9Y-6.7
X5.0Y-6.3
X5.0Y-6.4
X5.0Y-6.5
X5.0Y-6.6
X5.0Y-6.7
X5.1Y-6.3
X5.1Y-6.4
X5.1Y-6.5
X5.1Y-6.6
X5.1Y-6.7
X10.2Y-5.8
X10.2Y-5.9
X10.2Y-6.0
X10.2Y-6.1
X10.2Y-6.2
X10.3Y-5.8
X10.3Y-5.9
X10.3Y-6.0
X10.3Y-6.1
X10.3Y-6.2
X10.4Y-5.8
X10.4Y-5.9
X10.4Y-6.0
X10.4Y-6.1
X10.4Y-6.2
X10.5Y-5.8
X10.5Y-5.9
X10.5Y-6.0
X10.5Y-6.1
X10.5Y-6.2
X10.6Y-5.8
X10.6Y-5.9
X10.6Y-6.0
X10.6Y-6.1
X10.6Y-6.2
X12.2Y-3.3
X12.2Y-3.4
X12.2Y-3.5
X12.2Y-3.6
X12.2Y-3.7
X12.3Y-3.3
X12.3Y-3.4
X12.3Y-3.5
X12.3Y-3.6
X12.3Y-3.7
X12.4Y-3.3
X12.4Y-3.4
X12.4Y-3.5
X12.4Y-3.6
X12.4Y-3.7
X12.5Y-3.3
X12.5Y-3.4
X12.5Y-3.5
X12.5Y-3.6
X12.5Y-3.7
X12.6Y-3.3
X12.6Y-3.4
X12.6Y-3.5
X12.6Y-3.6
X12.6Y-3.7
X5.7Y-2.3
X5.7Y-2.4
X5.7Y-2.5
X5.7Y-2.6
X5.7Y-2.7
X5.8Y-2.3
X5.8Y-2.4
X5.8Y-2.5
X5.8Y-2.6
X5.8Y-2.7
X5.9Y-2.3
X5.9Y-2.4
X5.9Y-2.5
X5.9Y-2.6
X5.9Y-2.7
X6.0Y-2.3
X6.0Y-2.4
X6.0Y-2.5
X6.0Y-2.6
X6.0Y-2.7
X6.1Y-2.3
X6.1Y-2.4
X6.1Y-2.5
X6.1Y-2.6
X6.1Y-2.7
X6.7Y-5.8
X6.7Y-5.9
X6.7Y-6.0
X6.7Y-6.1
X6.7Y-6.2
X6.8Y-5.8
X6.8Y-5.9
X6.8Y-6.0
X6.8Y-6.1
X6.8Y-6.2
X6.9Y-5.8
X6.9Y-5.9
X6.9Y-6.0
X6.9Y-6.1
X6.9Y-6.2
X7.0Y-5.8
X7.0Y-5.9
X7.0Y-6.0
X7.0Y-6.1
X7.0Y-6.2
X7.1Y-5.8
X7.1Y-5.9
X7.1Y-6.0
X7.1Y-6.1
X7.1Y-6.2
X10.7Y-5.8
X10.7Y-5.9
X10.7Y-6.0
X10.7Y-6.1
X10.7Y-6.2
X10.8Y-5.8
X10.8Y-5.9
X10.8Y-6.0
X10.8Y-6.1
X10.8Y-6.2
X10.9Y-5.8
X10.9Y-5.9
X10.9Y-6.0
X10.9Y-6.1
X10.9Y-6.2
X11.0Y-5.8
X11.0Y-5.9
X11.0Y-6.0
X11.0Y-6.1
X11.0Y-6.2
X11.1Y-5.8
X11.1Y-5.9
X11.1Y-6.0
X11.1Y-6.1
X11.1Y-6.2
X8.2Y-3.8
X8.2Y-3.9
X8.2Y-4.0
X8.2Y-4.1
X8.2Y-4.2
X8.3Y-3.8
X8.3Y-3.9
X8.3Y-4.0
X8.3Y-4.1
X8.3Y-4.2
X8.4Y-3.8
X8.4Y-3.9
X8.4Y-4.0
X8.4Y-4.1
X8.4Y-4.2
X8.5Y-3.8
X8.5Y-3.9
X8.5Y-4.0
X8.5Y-4.1
X8.5Y-4.2
X8.6Y-3.8
X8.6Y-3.9
X8.6Y-4.0
X8.6Y-4.1
X8.6Y-4.2
X11.7Y-5.8
X11.7Y-5.9
X11.7Y-6.0
X11.7Y-6.1
X11.7Y-6.2
X11.8Y-5.8
X11.8Y-5.9
X11.8Y-6.0
X11.8Y-6.1
X11.8Y-6.2
X11.9Y-5.8
X11.9Y-5.9
X11.9Y-6.0
X11.9Y-6.1
X11.9Y-6.2
X12.0Y-5.8
X12.0Y-5.9
X12.0Y-6.0
X12.0Y-6.1
X12.0Y-6.2
X12.1Y-5.8
X12.1Y-5.9
X12.1Y-6.0
X12.1Y-6.1
X12.1Y-6.2
X8.7Y-3.8
X8.7Y-3.9
X8.7Y-4.0
X8.7Y-4.1
X8.7Y-4.2
X8.8Y-3.8
X8.8Y-3.9
X8.8Y-4.0
X8.8Y-4.1
X8.8Y-4.2
X8.9Y-3.8
X8.9Y-3.9
X8.9Y-4.0
X8.9Y-4.1
X8.9Y-4.2
X9.0Y-3.8
X9.0Y-3.9
X9.0Y-4.0
X9.0Y-4.1
X9.0Y-4.2
X9.1Y-3.8
X9.1Y-3.9
X9.1Y-4.0
X9.1Y-4.1
X9.1Y-4.2
X6.7Y-6.8
X6.7Y-6.9
X6.7Y-7.0
X6.7Y-7.1
X6.7Y-7.2
X6.8Y-6.8
X6.8Y-6.9
X6.8Y-7.0
X6.8Y-7.1
X6.8Y-7.2
X6.9Y-6.8
X6.9Y-6.9
X6.9Y-7.0
X6.9Y-7.1
X6.9Y-7.2
X7.0Y-6.8
X7.0Y-6.9
X7.0Y-7.0
X7.0Y-7.1
X7.0Y-7.2
X7.1Y-6.8
X7.1Y-6.9
X7.1Y-7.0
X7.1Y-7.1
X7.1Y-7.2
X6.2Y-7.8
X6.2Y-7.9
X6.2Y-8.0
X6.2Y-8.1
X6.2Y-8.2
X6.3Y-7.8
X6.3Y-7.9
X6.3Y-8.0
X6.3Y-8.1
X6.3Y-8.2
X6.4Y-7.8
X6.4Y-7.9
X6.4Y-8.0
X6.4Y-8.1
X6.4Y-8.2
X6.5Y-7.8
X6.5Y-7.9
X6.5Y-8.0
X6.5Y-8.1
X6.5Y-8.2
X6.6Y-7.8
X6.6Y-7.9
X6.6Y-8.0
X6.6Y-8.1
X6.6Y-8.2
X8.7Y-6.3
X8.7Y-6.4
X8.7Y-6.5
X8.7Y-6.6
X8.7Y-6.7
X8.8Y-6.3
X8.8Y-6.4
X8.8Y-6.5
X8.8Y-6.6
X8.8Y-6.7
X8.9Y-6.3
X8.9Y-6.4
X8.9Y-6.5
X8.9Y-6.6
X8.9Y-6.7
X9.0Y-6.3
X9.0Y-6.4
X9.0Y-6.5
X9.0Y-6.6
X9.0Y-6.7
X9.1Y-6.3
X9.1Y-6.4
X9.1Y-6.5
X9.1Y-6.6
X9.1Y-6.7
X4.7Y-5.8
X4.7Y-5.9
X4.7Y-6.0
X4.7Y-6.1
X4.7Y-6.2
X4.8Y-5.8
X4.8Y-5.9
X4.8Y-6.0
X4.8Y-6.1
X4.8Y-6.2
X4.9Y-5.8
X4.9Y-5.9
X4.9Y-6.0
X4.9Y-6.1
X4.9Y-6.2
X5.0Y-5.8
X5.0Y-5.9
X5.0Y-6.0
X5.0Y-6.1
X5.0Y-6.2
X5.1Y-5.8
X5.1Y-5.9
X5.1Y-6.0
X5.1Y-6.1
X5.1Y-6.2
X7.7Y-7.3
X7.7Y-7.4
X7.7Y-7.5
X7.7Y-7.6
X7.7Y-7.7
X7.8Y-7.3
X7.8Y-7.4
X7.8Y-7.5
X7.8Y-7.6
X7.8Y-7.7
X7.9Y-7.3
X7.9Y-7.4
X7.9Y-7.5
X7.9Y-7.6
X7.9Y-7.7
X8.0Y-7.3
X8.0Y-7.4
X8.0Y-7.5
X8.0Y-7.6
X8.0Y-7.7
X8.1Y-7.3
X8.1Y-7.4
X8.1Y-7.5
X8.1Y-7.6
X8.1Y-7.7
X1.7Y-7.8
X1.7Y-7.9
X1.7Y-8.0
X1.7Y-8.1
X1.7Y-8.2
X1.8Y-7.8
X1.8Y-7.9
X1.8Y-8.0
X1.8Y-8.1
X1.8Y-8.2
X1.9Y-7.8
X1.9Y-7.9
X1.9Y-8.0
X1.9Y-8.1
X1.9Y-8.2
X2.0Y-7.8
X2.0Y-7.9
X2.0Y-8.0
X2.0Y-8.1
X2.0Y-8.2
X2.1Y-7.8
X2.1Y-7.9
X2.1Y-8.0
X2.1Y-8.1
X2.1Y-8.2
X10.2Y-6.8
X10.2Y-6.9
X10.2Y-7.0
X10.2Y-7.1
X10.2Y-7.2
X10.3Y-6.8
X10.3Y-6.9
X10.3Y-7.0
X10.3Y-7.1
X10.3Y-7.2
X10.4Y-6.8
X10.4Y-6.9
X10.4Y-7.0
X10.4Y-7.1
X10.4Y-7.2
X10.5Y-6.8
X10.5Y-6.9
X10.5Y-7.0
X10.5Y-7.1
X10.5Y-7.2
X10.6Y-6.8
X10.6Y-6.9
X10.6Y-7.0
X10.6Y-7.1
X10.6Y-7.2
X5.2Y-4.3
X5.2Y-4.4
X5.2Y-4.5
X5.2Y-4.6
X5.2Y-4.7
X5.3Y-4.3
X5.3Y-4.4
X5.3Y-4.5
X5.3Y-4.6
X5.3Y-4.7
X5.4Y-4.3
X5.4Y-4.4
X5.4Y-4.5
X5.4Y-4.6
X5.4Y-4.7
X5.5Y-4.3
X5.5Y-4.4
X5.5Y-4.5
X5.5Y-4.6
X5.5Y-4.7
X5.6Y-4.3
X5.6Y-4.4
X5.6Y-4.5
X5.6Y-4.6
X5.6Y-4.7
X12.2Y-6.3
X12.2Y-6.4
X12.2Y-6.5
X12.2Y-6.6
X12.2Y-6.7
X12.3Y-6.3
X12.3Y-6.4
X12.3Y-6.5
X12.3Y-6.6
X12.3Y-6.7
X12.4Y-6.3
X12.4Y-6.4
X12.4Y-6.5
X12.4Y-6.6
X12.4Y-6.7
X12.5Y-6.3
X12.5Y-6.4
X12.5Y-6.5
X12.5Y-6.6
X12.5Y-6.7
X12.6Y-6.3
X12.6Y-6.4
X12.6Y-6.5
X12.6Y-6.6
X12.6Y-6.7
X11.2Y-6.8
X11.2Y-6.9
X11.2Y-7.0
X11.2Y-7.1
X11.2Y-7.2
X11.3Y-6.8
X11.3Y-6.9
X11.3Y-7.0
X11.3Y-7.1
X11.3Y-7.2
X11.4Y-6.8
X11.4Y-6.9
X11.4Y-7.0
X11.4Y-7.1
X11.4Y-7.2
X11.5Y-6.8
X11.5Y-6.9
X11.5Y-7.0
X11.5Y-7.1
X11.5Y-7.2
X11.6Y-6.8
X11.6Y-6.9
X11.6Y-7.0
X11.6Y-7.1
X11.6Y-7.2
X9.7Y-1.8
X9.7Y-1.9
X9.7Y-2.0
X9.7Y-2.1
X9.7Y-2.2
X9.8Y-1.8
X9.8Y-1.9
X9.8Y-2.0
X9.8Y-2.1
X9.8Y-2.2
X9.9Y-1.8
X9.9Y-1.9
X9.9Y-2.0
X9.9Y-2.1
X9.9Y-2.2
X10.0Y-1.8
X10.0Y-1.9
X10.0Y-2.0
X10.0Y-2.1
X10.0Y-2.2
X10.1Y-1.8
X10.1Y-1.9
X10.1Y-2.0
X10.1Y-2.1
X10.1Y-2.2
X10.2Y-3.8
X10.2Y-3.9
X10.2Y-4.0
X10.2Y-4.1
X10.2Y-4.2
X10.3Y-3.8
X10.3Y-3.9
X10.3Y-4.0
X10.3Y-4.1
X10.3Y-4.2
X10.4Y-3.8
X10.4Y-3.9
X10.4Y-4.0
X10.4Y-4.1
X10.4Y-4.2
X10.5Y-3.8
X10.5Y-3.9
X10.5Y-4.0
X10.5Y-4.1
X10.5Y-4.2
X10.6Y-3.8
X10.6Y-3.9
X10.6Y-4.0
X10.6Y-4.1
X10.6Y-4.2
X9.2Y-6.8
X9.2Y-6.9
X9.2Y-7.0
X9.2Y-7.1
X9.2Y-7.2
X9.3Y-6.8
X9.3Y-6.9
X9.3Y-7.0
X9.3Y-7.1
X9.3Y-7.2
X9.4Y-6.8
X9.4Y-6.9
X9.4Y-7.0
X9.4Y-7.1
X9.4Y-7.2
X9.5Y-6.8
X9.5Y-6.9
X9.5Y-7.0
X9.5Y-7.1
X9.5Y-7.2
X9.6Y-6.8
X9.6Y-6.9
X9.6Y-7.0
X9.6Y-7.1
X9.6Y-7.2
X8.7Y-4.8
X8.7Y-4.9
X8.7Y-5.0
X8.7Y-5.1
X8.7Y-5.2
X8.8Y-4.8
X8.8Y-4.9
X8.8Y-5.0
X8.8Y-5.1
X8.8Y-5.2
X8.9Y-4.8
X8.9Y-4.9
X8.9Y-5.0
X8.9Y-5.1
X8.9Y-5.2
X9.0Y-4.8
X9.0Y-4.9
X9.0Y-5.0
X9.0Y-5.1
X9.0Y-5.2
X9.1Y-4.8
X9.1Y-4.9
X9.1Y-5.0
X9.1Y-5.1
X9.1Y-5.2
X6.7Y-4.3
X6.7Y-4.4
X6.7Y-4.5
X6.7Y-4.6
X6.7Y-4.7
X6.8Y-4.3
X6.8Y-4.4
X6.8Y-4.5
X6.8Y-4.6
X6.8Y-4.7
X6.9Y-4.3
X6.9Y-4.4
X6.9Y-4.5
X6.9Y-4.6
X6.9Y-4.7
X7.0Y-4.3
X7.0Y-4.4
X7.0Y-4.5
X7.0Y-4.6
X7.0Y-4.7
X7.1Y-4.3
X7.1Y-4.4
X7.1Y-4.5
X7.1Y-4.6
X7.1Y-4.7
X3.7Y-3.3
X3.7Y-3.4
X3.7Y-3.5
X3.7Y-3.6
X3.7Y-3.7
X3.8Y-3.3
X3.8Y-3.4
X3.8Y-3.5
X3.8Y-3.6
X3.8Y-3.7
X3.9Y-3.3
X3.9Y-3.4
X3.9Y-3.5
X3.9Y-3.6
X3.9Y-3.7
X4.0Y-3.3
X4.0Y-3.4
X4.0Y-3.5
X4.0Y-3.6
X4.0Y-3.7
X4.1Y-3.3
X4.1Y-3.4
X4.1Y-3.5
X4.1Y-3.6
X4.1Y-3.7
X6.7Y-7.8
X6.7Y-7.9
X6.7Y-8.0
X6.7Y-8.1
X6.7Y-8.2
X6.8Y-7.8
X6.8Y-7.9
X6.8Y-8.0
X6.8Y-8.1
X6.8Y-8.2
X6.9Y-7.8
X6.9Y-7.9
X6.9Y-8.0
X6.9Y-8.1
X6.9Y-8.2
X7.0Y-7.8
X7.0Y-7.9
X7.0Y-8.0
X7.0Y-8.1
X7.0Y-8.2
X7.1Y-7.8
X7.1Y-7.9
X7.1Y-8.0
X7.1Y-8.1
X7.1Y-8.2
X3.7Y-2.3
X3.7Y-2.4
X3.7Y-2.5
X3.7Y-2.6
X3.7Y-2.7
X3.8Y-2.3
X3.8Y-2.4
X3.8Y-2.5
X3.8Y-2.6
X3.8Y-2.7
X3.9Y-2.3
X3.9Y-2.4
X3.9Y-2.5
X3.9Y-2.6
X3.9Y-2.7
X4.0Y-2.3
X4.0Y-2.4
X4.0Y-2.5
X4.0Y-2.6
X4.0Y-2.7
X4.1Y-2.3
X4.1Y-2.4
X4.1Y-2.5
X4.1Y-2.6
X4.1Y-2.7
X10.7Y-5.3
X10.7Y-5.4
X10.7Y-5.5
X10.7Y-5.6
X10.7Y-5.7
X10.8Y-5.3
X10.8Y-5.4
X10.8Y-5.5
X10.8Y-5.6
X10.8Y-5.7
X10.9Y-5.3
X10.9Y-5.4
X10.9Y-5.5
X10.9Y-5.6
X10.9Y-5.7
X11.0Y-5.3
X11.0Y-5.4
X11.0Y-5.5
X11.0Y-5.6
X11.0Y-5.7
X11.1Y-5.3
X11.1Y-5.4
X11.1Y-5.5
X11.1Y-5.6
X11.1Y-5.7
X7.7Y-6.8
X7.7Y-6.9
X7.7Y-7.0
X7.7Y-7.1
X7.7Y-7.2
X7.8Y-6.8
X7.8Y-6.9
X7.8Y-7.0
X7.8Y-7.1
X7.8Y-7.2
X7.9Y-6.8
X7.9Y-6.9
X7.9Y-7.0
X7.9Y-7.1
X7.9Y-7.2
X8.0Y-6.8
X8.0Y-6.9
X8.0Y-7.0
X8.0Y-7.1
X8.0Y-7.2
X8.1Y-6.8
X8.1Y-6.9
X8.1Y-7.0
X8.1Y-7.1
X8.1Y-7.2
X6.7Y-2.3
X6.7Y-2.4
X6.7Y-2.5
X6.7Y-2.6
X6.7Y-2.7
X6.8Y-2.3
X6.8Y-2.4
X6.8Y-2.5
X6.8Y-2.6
X6.8Y-2.7
X6.9Y-2.3
X6.9Y-2.4
X6.9Y-2.5
X6.9Y-2.6
X6.9Y-2.7
X7.0Y-2.3
X7.0Y-2.4
X7.0Y-2.5
X7.0Y-2.6
X7.0Y-2.7
X7.1Y-2.3
X7.1Y-2.4
X7.1Y-2.5
X7.1Y-2.6
X7.1Y-2.7
X2.2Y-5.8
X2.2Y-5.9
X2.2Y-6.0
X2.2Y-6.1
X2.2Y-6.2
X2.3Y-5.8
X2.3Y-5.9
X2.3Y-6.0
X2.3Y-6.1
X2.3Y-6.2
X2.4Y-5.8
X2.4Y-5.9
X2.4Y-6.0
X2.4Y-6.1
X2.4Y-6.2
X2.5Y-5.8
X2.5Y-5.9
X2.5Y-6.0
X2.5Y-6.1
X2.5Y-6.2
X2.6Y-5.8
X2.6Y-5.9
X2.6Y-6.0
X2.6Y-6.1
X2.6Y-6.2
X2.7Y-7.3
X2.7Y-7.4
X2.7Y-7.5
X2.7Y-7.6
X2.7Y-7.7
X2.8Y-7.3
X2.8Y-7.4
X2.8Y-7.5
X2.8Y-7.6
X2.8Y-7.7
X2.9Y-7.3
X2.9Y-7.4
X2.9Y-7.5
X2.9Y-7.6
X2.9Y-7.7
X3.0Y-7.3
X3.0Y-7.4
X3.0Y-7.5
X3.0Y-7.6
X3.0Y-7.7
X3.1Y-7.3
X3.1Y-7.4
X3.1Y-7.5
X3.1Y-7.6
X3.1Y-7.7
X4.7Y-3.3
X4.7Y-3.4
X4.7Y-3.5
X4.7Y-3.6
X4.7Y-3.7
X4.8Y-3.3
X4.8Y-3.4
X4.8Y-3.5
X4.8Y-3.6
X4.8Y-3.7
X4.9Y-3.3
X4.9Y-3.4
X4.9Y-3.5
X4.9Y-3.6
X4.9Y-3.7
X5.0Y-3.3
X5.0Y-3.4
X5.0Y-3.5
X5.0Y-3.6
X5.0Y-3.7
X5.1Y-3.3
X5.1Y-3.4
X5.1Y-3.5
X5.1Y-3.6
X5.1Y-3.7
X11.2Y-3.3
X11.2Y-3.4
X11.2Y-3.5
X11.2Y-3.6
X11.2Y-3.7
X11.3Y-3.3
X11.3Y-3.4
X11.3Y-3.5
X11.3Y-3.6
X11.3Y-3.7
X11.4Y-3.3
X11.4Y-3.4
X11.4Y-3.5
X11.4Y-3.6
X11.4Y-3.7
X11.5Y-3.3
X11.5Y-3.4
X11.5Y-3.5
X11.5Y-3.6
X11.5Y-3.7
X11.6Y-3.3
X11.6Y-3.4
X11.6Y-3.5
X11.6Y-3.6
X11.6Y-3.7
X3.7Y-2.8
X3.7Y-2.9
X3.7Y-3.0
X3.7Y-3.1
X3.7Y-3.2
X3.8Y-2.8
X3.8Y-2.9
X3.8Y-3.0
X3.8Y-3.1
X3.8Y-3.2
X3.9Y-2.8
X3.9Y-2.9
X3.9Y-3.0
X3.9Y-3.1
X3.9Y-3.2
X4.0Y-2.8
X4.0Y-2.9
X4.0Y-3.0
X4.0Y-3.1
X4.0Y-3.2
X4.1Y-2.8
X4.1Y-2.9
X4.1Y-3.0
X4.1Y-3.1
X4.1Y-3.2
X1.2Y-6.8
X1.2Y-6.9
X1.2Y-7.0
X1.2Y-7.1
X1.2Y-7.2
X1.3Y-6.8
X1.3Y-6.9
X1.3Y-7.0
X1.3Y-7.1
X1.3Y-7.2
X1.4Y-6.8
X1.4Y-6.9
X1.4Y-7.0
X1.4Y-7.1
X1.4Y-7.2
X1.5Y-6.8
X1.5Y-6.9
X1.5Y-7.0
X1.5Y-7.1
X1.5Y-7.2
X1.6Y-6.8
X1.6Y-6.9
X1.6Y-7.0
X1.6Y-7.1
X1.6Y-7.2
X12.2Y-5.8
X12.2Y-5.9
X12.2Y-6.0
X12.2Y-6.1
X12.2Y-6.2
X12.3Y-5.8
X12.3Y-5.9
X12.3Y-6.0
X12.3Y-6.1
X12.3Y-6.2
X12.4Y-5.8
X12.4Y-5.9
X12.4Y-6.0
X12.4Y-6.1
X12.4Y-6.2
X12.5Y-5.8
X12.5Y-5.9
X12.5Y-6.0
X12.5Y-6.1
X12.5Y-6.2
X12.6Y-5.8
X12.6Y-5.9
X12.6Y-6.0
X12.6Y-6.1
X12.6Y-6.2
X7.2Y-4.3
X7.2Y-4.4
X7.2Y-4.5
X7.2Y-4.6
X7.2Y-4.7
X7.3Y-4.3
X7.3Y-4.4
X7.3Y-4.5
X7.3Y-4.6
X7.3Y-4.7
X7.4Y-4.3
X7.4Y-4.4
X7.4Y-4.5
X7.4Y-4.6
X7.4Y-4.7
X7.5Y-4.3
X7.5Y-4.4
X7.5Y-4.5
X7.5Y-4.6
X7.5Y-4.7
X7.6Y-4.3
X7.6Y-4.4
X7.6Y-4.5
X7.6Y-4.6
X7.6Y-4.7
X6.7Y-5.3
X6.7Y-5.4
X6.7Y-5.5
X6.7Y-5.6
X6.7Y-5.7
X6.8Y-5.3
X6.8Y-5.4
X6.8Y-5.5
X6.8Y-5.6
X6.8Y-5.7
X6.9Y-5.3
X6.9Y-5.4
X6.9Y-5.5
X6.9Y-5.6
X6.9Y-5.7
X7.0Y-5.3
X7.0Y-5.4
X7.0Y-5.5
X7.0Y-5.6
X7.0Y-5.7
X7.1Y-5.3
X7.1Y-5.4
X7.1Y-5.5
X7.1Y-5.6
X7.1Y-5.7
X2.2Y-7.3
X2.2Y-7.4
X2.2Y-7.5
X2.2Y-7.6
X2.2Y-7.7
X2.3Y-7.3
X2.3Y-7.4
X2.3Y-7.5
X2.3Y-7.6
X2.3Y-7.7
X2.4Y-7.3
X2.4Y-7.4
X2.4Y-7.5
X2.4Y-7.6
X2.4Y-7.7
X2.5Y-7.3
X2.5Y-7.4
X2.5Y-7.5
X2.5Y-7.6
X2.5Y-7.7
X2.6Y-7.3
X2.6Y-7.4
X2.6Y-7.5
X2.6Y-7.6
X2.6Y-7.7
X6.2Y-6.8
X6.2Y-6.9
X6.2Y-7.0
X6.2Y-7.1
X6.2Y-7.2
X6.3Y-6.8
X6.3Y-6.9
X6.3Y-7.0
X6.3Y-7.1
X6.3Y-7.2
X6.4Y-6.8
X6.4Y-6.9
X6.4Y-7.0
X6.4Y-7.1
X6.4Y-7.2
X6.5Y-6.8
X6.5Y-6.9
X6.5Y-7.0
X6.5Y-7.1
X6.5Y-7.2
X6.6Y-6.8
X6.6Y-6.9
X6.6Y-7.0
X6.6Y-7.1
X6.6Y-7.2
X4.7Y-7.8
X4.7Y-7.9
X4.7Y-8.0
X4.7Y-8.1
X4.7Y-8.2
X4.8Y-7.8
X4.8Y-7.9
X4.8Y-8.0
X4.8Y-8.1
X4.8Y-8.2
X4.9Y-7.8
X4.9Y-7.9
X4.9Y-8.0
X4.9Y-8.1
X4.9Y-8.2
X5.0Y-7.8
X5.0Y-7.9
X5.0Y-8.0
X5.0Y-8.1
X5.0Y-8.2
X5.1Y-7.8
X5.1Y-7.9
X5.1Y-8.0
X5.1Y-8.1
X5.1Y-8.2
X12.2Y-3.8
X12.2Y-3.9
X12.2Y-4.0
X12.2Y-4.1
X12.2Y-4.2
X12.3Y-3.8
X12.3Y-3.9
X12.3Y-4.0
X12.3Y-4.1
X12.3Y-4.2
X12.4Y-3.8
X12.4Y-3.9
X12.4Y-4.0
X12.4Y-4.1
X12.4Y-4.2
X12.5Y-3.8
X12.5Y-3.9
X12.5Y-4.0
X12.5Y-4.1
X12.5Y-4.2
X12.6Y-3.8
X12.6Y-3.9
X12.6Y-4.0
X12.6Y-4.1
X12.6Y-4.2
X10.7Y-6.8
X10.7Y-6.9
X10.7Y-7.0
X10.7Y-7.1
X10.7Y-7.2
X10.8Y-6.8
X10.8Y-6.9
X10.8Y-7.0
X10.8Y-7.1
X10.8Y-7.2
X10.9Y-6.8
X10.9Y-6.9
X10.9Y-7.0
X10.9Y-7.1
X10.9Y-7.2
X11.0Y-6.8
X11.0Y-6.9
X11.0Y-7.0
X11.0Y-7.1
X11.0Y-7.2
X11.1Y-6.8
X11.1Y-6.9
X11.1Y-7.0
X11.1Y-7.1
X11.1Y-7.2
X2.7Y-2.8
X2.7Y-2.9
X2.7Y-3.0
X2.7Y-3.1
X2.7Y-3.2
X2.8Y-2.8
X2.8Y-2.9
X2.8Y-3.0
X2.8Y-3.1
X2.8Y-3.2
X2.9Y-2.8
X2.9Y-2.9
X2.9Y-3.0
X2.9Y-3.1
X2.9Y-3.2
X3.0Y-2.8
X3.0Y-2.9
X3.0Y-3.0
X3.0Y-3.1
X3.0Y-3.2
X3.1Y-2.8
X3.1Y-2.9
X3.1Y-3.0
X3.1Y-3.1
X3.1Y-3.2
X4.7Y-4.3
X4.7Y-4.4
X4.7Y-4.5
X4.7Y-4.6
X4.7Y-4.7
X4.8Y-4.3
X4.8Y-4.4
X4.8Y-4.5
X4.8Y-4.6
X4.8Y-4.7
X4.9Y-4.3
X4.9Y-4.4
X4.9Y-4.5
X4.9Y-4.6
X4.9Y-4.7
X5.0Y-4.3
X5.0Y-4.4
X5.0Y-4.5
X5.0Y-4.6
X5.0Y-4.7
X5.1Y-4.3
X5.1Y-4.4
X5.1Y-4.5
X5.1Y-4.6
X5.1Y-4.7
X3.7Y-4.3
X3.7Y-4.4
X3.7Y-4.5
X3.7Y-4.6
X3.7Y-4.7
X3.8Y-4.3
X3.8Y-4.4
X3.8Y-4.5
X3.8Y-4.6
X3.8Y-4.7
X3.9Y-4.3
X3.9Y-4.4
X3.9Y-4.5
X3.9Y-4.6
X3.9Y-4.7
X4.0Y-4.3
X4.0Y-4.4
X4.0Y-4.5
X4.0Y-4.6
X4.0Y-4.7
X4.1Y-4.3
X4.1Y-4.4
X4.1Y-4.5
X4.1Y-4.6
X4.1Y-4.7
X7.2Y-6.8
X7.2Y-6.9
X7.2Y-7.0
X7.2Y-7.1
X7.2Y-7.2
X7.3Y-6.8
X7.3Y-6.9
X7.3Y-7.0
X7.3Y-7.1
X7.3Y-7.2
X7.4Y-6.8
X7.4Y-6.9
X7.4Y-7.0
X7.4Y-7.1
X7.4Y-7.2
X7.5Y-6.8
X7.5Y-6.9
X7.5Y-7.0
X7.5Y-7.1
X7.5Y-7.2
X7.6Y-6.8
X7.6Y-6.9
X7.6Y-7.0
X7.6Y-7.1
X7.6Y-7.2
X7.2Y-3.8
X7.2Y-3.9
X7.2Y-4.0
X7.2Y-4.1
X7.2Y-4.2
X7.3Y-3.8
X7.3Y-3.9
X7.3Y-4.0
X7.3Y-4.1
X7.3Y-4.2
X7.4Y-3.8
X7.4Y-3.9
X7.4Y-4.0
X7.4Y-4.1
X7.4Y-4.2
X7.5Y-3.8
X7.5Y-3.9
X7.5Y-4.0
X7.5Y-4.1
X7.5Y-4.2
X7.6Y-3.8
X7.6Y-3.9
X7.6Y-4.0
X7.6Y-4.1
X7.6Y-4.2
X2.2Y-3.8
X2.2Y-3.9
X2.2Y-4.0
X2.2Y-4.1
X2.2Y-4.2
X2.3Y-3.8
X2.3Y-3.9
X2.3Y-4.0
X2.3Y-4.1
X2.3Y-4.2
X2.4Y-3.8
X2.4Y-3.9
X2.4Y-4.0
X2.4Y-4.1
X2.4Y-4.2
X2.5Y-3.8
X2.5Y-3.9
X2.5Y-4.0
X2.5Y-4.1
X2.5Y-4.2
X2.6Y-3.8
X2.6Y-3.9
X2.6Y-4.0
X2.6Y-4.1
X2.6Y-4.2
X9.7Y-2.8
X9.7Y-2.9
X9.7Y-3.0
X9.7Y-3.1
X9.7Y-3.2
X9.8Y-2.8
X9.8Y-2.9
X9.8Y-3.0
X9.8Y-3.1
X9.8Y-3.2
X9.9Y-2.8
X9.9Y-2.9
X9.9Y-3.0
X9.9Y-3.1
X9.9Y-3.2
X10.0Y-2.8
X10.0Y-2.9
X10.0Y-3.0
X10.0Y-3.1
X10.0Y-3.2
X10.1Y-2.8
X10.1Y-2.9
X10.1Y-3.0
X10.1Y-3.1
X10.1Y-3.2
X6.7Y-1.8
X6.7Y-1.9
X6.7Y-2.0
X6.7Y-2.1
X6.7Y-2.2
X6.8Y-1.8
X6.8Y-1.9
X6.8Y-2.0
X6.8Y-2.1
X6.8Y-2.2
X6.9Y-1.8
X6.9Y-1.9
X6.9Y-2.0
X6.9Y-2.1
X6.9Y-2.2
X7.0Y-1.8
X7.0Y-1.9
X7.0Y-2.0
X7.0Y-2.1
X7.0Y-2.2
X7.1Y-1.8
X7.1Y-1.9
X7.1Y-2.0
X7.1Y-2.1
X7.1Y-2.2
X7.7Y-1.8
X7.7Y-1.9
X7.7Y-2.0
X7.7Y-2.1
X7.7Y-2.2
X7.8Y-1.8
X7.8Y-1.9
X7.8Y-2.0
X7.8Y-2.1
X7.8Y-2.2
X7.9Y-1.8
X7.9Y-1.9
X7.9Y-2.0
X7.9Y-2.1
X7.9Y-2.2
X8.0Y-1.8
X8.0Y-1.9
X8.0Y-2.0
X8.0Y-2.1
X8.0Y-2.2
X8.1Y-1.8
X8.1Y-1.9
X8.1Y-2.0
X8.1Y-2.1
X8.1Y-2.2
X11.7Y-5.3
X11.7Y-5.4
X11.7Y-5.5
X11.7Y-5.6
X11.7Y-5.7
X11.8Y-5.3
X11.8Y-5.4
X11.8Y-5.5
X11.8Y-5.6
X11.8Y-5.7
X11.9Y-5.3
X11.9Y-5.4
X11.9Y-5.5
X11.9Y-5.6
X11.9Y-5.7
X12.0Y-5.3
X12.0Y-5.4
X12.0Y-5.5
X12.0Y-5.6
X12.0Y-5.7
X12.1Y-5.3
X12.1Y-5.4
X12.1Y-5.5
X12.1Y-5.6
X12.1Y-5.7
X1.2Y-3.8
X1.2Y-3.9
X1.2Y-4.0
X1.2Y-4.1
X1.2Y-4.2
X1.3Y-3.8
X1.3Y-3.9
X1.3Y-4.0
X1.3Y-4.1
X1.3Y-4.2
X1.4Y-3.8
X1.4Y-3.9
X1.4Y-4.0
X1.4Y-4.1
X1.4Y-4.2
X1.5Y-3.8
X1.5Y-3.9
X1.5Y-4.0
X1.5Y-4.1
X1.5Y-4.2
X1.6Y-3.8
X1.6Y-3.9
X1.6Y-4.0
X1.6Y-4.1
X1.6Y-4.2
X9.7Y-4.8
X9.7Y-4.9
X9.7Y-5.0
X9.7Y-5.1
X9.7Y-5.2
X9.8Y-4.8
X9.8Y-4.9
X9.8Y-5.0
X9.8Y-5.1
X9.8Y-5.2
X9.9Y-4.8
X9.9Y-4.9
X9.9Y-5.0
X9.9Y-5.1
X9.9Y-5.2
X10.0Y-4.8
X10.0Y-4.9
X10.0Y-5.0
X10.0Y-5.1
X10.0Y-5.2
X10.1Y-4.8
X10.1Y-4.9
X10.1Y-5.0
X10.1Y-5.1
X10.1Y-5.2
X12.2Y-4.3
X12.2Y-4.4
X12.2Y-4.5
X12.2Y-4.6
X12.2Y-4.7
X12.3Y-4.3
X12.3Y-4.4
X12.3Y-4.5
X12.3Y-4.6
X12.3Y-4.7
X12.4Y-4.3
X12.4Y-4.4
X12.4Y-4.5
X12.4Y-4.6
X12.4Y-4.7
X12.5Y-4.3
X12.5Y-4.4
X12.5Y-4.5
X12.5Y-4.6
X12.5Y-4.7
X12.6Y-4.3
X12.6Y-4.4
X12.6Y-4.5
X12.6Y-4.6
X12.6Y-4.7
X10.7Y-3.8
X10.7Y-3.9
X10.7Y-4.0
X10.7Y-4.1
X10.7Y-4.2
X10.8Y-3.8
X10.8Y-3.9
X10.8Y-4.0
X10.8Y-4.1
X10.8Y-4.2
X10.9Y-3.8
X10.9Y-3.9
X10.9Y-4.0
X10.9Y-4.1
X10.9Y-4.2
X11.0Y-3.8
X11.0Y-3.9
X11.0Y-4.0
X11.0Y-4.1
X11.0Y-4.2
X11.1Y-3.8
X11.1Y-3.9
X11.1Y-4.0
X11.1Y-4.1
X11.1Y-4.2
X8.7Y-5.3
X8.7Y-5.4
X8.7Y-5.5
X8.7Y-5.6
X8.7Y-5.7
X8.8Y-5.3
X8.8Y-5.4
X8.8Y-5.5
X8.8Y-5.6
X8.8Y-5.7
X8.9Y-5.3
X8.9Y-5.4
X8.9Y-5.5
X8.9Y-5.6
X8.9Y-5.7
X9.0Y-5.3
X9.0Y-5.4
X9.0Y-5.5
X9.0Y-5.6
X9.0Y-5.7
X9.1Y-5.3
X9.1Y-5.4
X9.1Y-5.5
X9.1Y-5.6
X9.1Y-5.7
X4.2Y-7.8
X4.2Y-7.9
X4.2Y-8.0
X4.2Y-8.1
X4.2Y-8.2
X4.3Y-7.8
X4.3Y-7.9
X4.3Y-8.0
X4.3Y-8.1
X4.3Y-8.2
X4.4Y-7.8
X4.4Y-7.9
X4.4Y-8.0
X4.4Y-8.1
X4.4Y-8.2
X4.5Y-7.8
X4.5Y-7.9
X4.5Y-8.0
X4.5Y-8.1
X4.5Y-8.2
X4.6Y-7.8
X4.6Y-7.9
X4.6Y-8.0
X4.6Y-8.1
X4.6Y-8.2
X11.7Y-2.8
X11.7Y-2.9
X11.7Y-3.0
X11.7Y-3.1
X11.7Y-3.2
X11.8Y-2.8
X11.8Y-2.9
X11.8Y-3.0
X11.8Y-3.1
X11.8Y-3.2
X11.9Y-2.8
X11.9Y-2.9
X11.9Y-3.0
X11.9Y-3.1
X11.9Y-3.2
X12.0Y-2.8
X12.0Y-2.9
X12.0Y-3.0
X12.0Y-3.1
X12.0Y-3.2
X12.1Y-2.8
X12.1Y-2.9
X12.1Y-3.0
X12.1Y-3.1
X12.1Y-3.2
X5.2Y-2.8
X5.2Y-2.9
X5.2Y-3.0
X5.2Y-3.1
X5.2Y-3.2
X5.3Y-2.8
X5.3Y-2.9
X5.3Y-3.0
X5.3Y-3.1
X5.3Y-3.2
X5.4Y-2.8
X5.4Y-2.9
X5.4Y-3.0
X5.4Y-3.1
X5.4Y-3.2
X5.5Y-2.8
X5.5Y-2.9
X5.5Y-3.0
X5.5Y-3.1
X5.5Y-3.2
X5.6Y-2.8
X5.6Y-2.9
X5.6Y-3.0
X5.6Y-3.1
X5.6Y-3.2
X5.7Y-5.8
X5.7Y-5.9
X5.7Y-6.0
X5.7Y-6.1
X5.7Y-6.2
X5.8Y-5.8
X5.8Y-5.9
X5.8Y-6.0
X5.8Y-6.1
X5.8Y-6.2
X5.9Y-5.8
X5.9Y-5.9
X5.9Y-6.0
X5.9Y-6.1
X5.9Y-6.2
X6.0Y-5.8
X6.0Y-5.9
X6.0Y-6.0
X6.0Y-6.1
X6.0Y-6.2
X6.1Y-5.8
X6.1Y-5.9
X6.1Y-6.0
X6.1Y-6.1
X6.1Y-6.2
X5.7Y-3.8
X5.7Y-3.9
X5.7Y-4.0
X5.7Y-4.1
X5.7Y-4.2
X5.8Y-3.8
X5.8Y-3.9
X5.8Y-4.0
X5.8Y-4.1
X5.8Y-4.2
X5.9Y-3.8
X5.9Y-3.9
X5.9Y-4.0
X5.9Y-4.1
X5.9Y-4.2
X6.0Y-3.8
X6.0Y-3.9
X6.0Y-4.0
X6.0Y-4.1
X6.0Y-4.2
X6.1Y-3.8
X6.1Y-3.9
X6.1Y-4.0
X6.1Y-4.1
X6.1Y-4.2
X4.2Y-5.8
X4.2Y-5.9
X4.2Y-6.0
X4.2Y-6.1
X4.2Y-6.2
X4.3Y-5.8
X4.3Y-5.9
X4.3Y-6.0
X4.3Y-6.1
X4.3Y-6.2
X4.4Y-5.8
X4.4Y-5.9
X4.4Y-6.0
X4.4Y-6.1
X4.4Y-6.2
X4.5Y-5.8
X4.5Y-5.9
X4.5Y-6.0
X4.5Y-6.1
X4.5Y-6.2
X4.6Y-5.8
X4.6Y-5.9
X4.6Y-6.0
X4.6Y-6.1
X4.6Y-6.2
X7.7Y-3.3
X7.7Y-3.4
X7.7Y-3.5
X7.7Y-3.6
X7.7Y-3.7
X7.8Y-3.3
X7.8Y-3.4
X7.8Y-3.5
X7.8Y-3.6
X7.8Y-3.7
X7.9Y-3.3
X7.9Y-3.4
X7.9Y-3.5
X7.9Y-3.6
X7.9Y-3.7
X8.0Y-3.3
X8.0Y-3.4
X8.0Y-3.5
X8.0Y-3.6
X8.0Y-3.7
X8.1Y-3.3
X8.1Y-3.4
X8.1Y-3.5
X8.1Y-3.6
X8.1Y-3.7
X3.7Y-7.3
X3.7Y-7.4
X3.7Y-7.5
X3.7Y-7.6
X3.7Y-7.7
X3.8Y-7.3
X3.8Y-7.4
X3.8Y-7.5
X3.8Y-7.6
X3.8Y-7.7
X3.9Y-7.3
X3.9Y-7.4
X3.9Y-7.5
X3.9Y-7.6
X3.9Y-7.7
X4.0Y-7.3
X4.0Y-7.4
X4.0Y-7.5
X4.0Y-7.6
X4.0Y-7.7
X4.1Y-7.3
X4.1Y-7.4
X4.1Y-7.5
X4.1Y-7.6
X4.1Y-7.7
X2.7Y-6.8
X2.7Y-6.9
X2.7Y-7.0
X2.7Y-7.1
X2.7Y-7.2
X2.8Y-6.8
X2.8Y-6.9
X2.8Y-7.0
X2.8Y-7.1
X2.8Y-7.2
X2.9Y-6.8
X2.9Y-6.9
X2.9Y-7.0
X2.9Y-7.1
X2.9Y-7.2
X3.0Y-6.8
X3.0Y-6.9
X3.0Y-7.0
X3.0Y-7.1
X3.0Y-7.2
X3.1Y-6.8
X3.1Y-6.9
X3.1Y-7.0
X3.1Y-7.1
X3.1Y-7.2
X10.2Y-4.3
X10.2Y-4.4
X10.2Y-4.5
X10.2Y-4.6
X10.2Y-4.7
X10.3Y-4.3
X10.3Y-4.4
X10.3Y-4.5
X10.3Y-4.6
X10.3Y-4.7
X10.4Y-4.3
X10.4Y-4.4
X10.4Y-4.5
X10.4Y-4.6
X10.4Y-4.7
X10.5Y-4.3
X10.5Y-4.4
X10.5Y-4.5
X10.5Y-4.6
X10.5Y-4.7
X10.6Y-4.3
X10.6Y-4.4
X10.6Y-4.5
X10.6Y-4.6
X10.6Y-4.7
X5.7Y-1.8
X5.7Y-1.9
X5.7Y-2.0
X5.7Y-2.1
X5.7Y-2.2
X5.8Y-1.8
X5.8Y-1.9
X5.8Y-2.0
X5.8Y-2.1
X5.8Y-2.2
X5.9Y-1.8
X5.9Y-1.9
X5.9Y-2.0
X5.9Y-2.1
X5.9Y-2.2
X6.0Y-1.8
X6.0Y-1.9
X6.0Y-2.0
X6.0Y-2.1
X6.0Y-2.2
X6.1Y-1.8
X6.1Y-1.9
X6.1Y-2.0
X6.1Y-2.1
X6.1Y-2.2
X5.2Y-4.8
X5.2Y-4.9
X5.2Y-5.0
X5.2Y-5.1
X5.2Y-5.2
X5.3Y-4.8
X5.3Y-4.9
X5.3Y-5.0
X5.3Y-5.1
X5.3Y-5.2
X5.4Y-4.8
X5.4Y-4.9
X5.4Y-5.0
X5.4Y-5.1
X5.4Y-5.2
X5.5Y-4.8
X5.5Y-4.9
X5.5Y-5.0
X5.5Y-5.1
X5.5Y-5.2
X5.6Y-4.8
X5.6Y-4.9
X5.6Y-5.0
X5.6Y-5.1
X5.6Y-5.2
X3.7Y-5.3
X3.7Y-5.4
X3.7Y-5.5
X3.7Y-5.6
X3.7Y-5.7
X3.8Y-5.3
X3.8Y-5.4
X3.8Y-5.5
X3.8Y-5.6
X3.8Y-5.7
X3.9Y-5.3
X3.9Y-5.4
X3.9Y-5.5
X3.9Y-5.6
X3.9Y-5.7
X4.0Y-5.3
X4.0Y-5.4
X4.0Y-5.5
X4.0Y-5.6
X4.0Y-5.7
X4.1Y-5.3
X4.1Y-5.4
X4.1Y-5.5
X4.1Y-5.6
X4.1Y-5.7
T7
X12.4Y-2.0
X12.4Y-2.1
X12.4Y-2.2
T9
X11.3Y-1.1
X11.4Y-1.6
X11.4Y-1.75
X11.4Y-1.9
X11.5Y-1.1
T10
X5.3843Y-8.6181
X5.65Y-8.65
X5.9157Y-8.6181
X4.5843Y-8.6181
X4.85Y-8.65
X5.1157Y-8.6181
T11
X1.7185Y-1.3441
X3.5728Y-1.3441
X1.726Y-8.4559
X2.7102Y-8.4559
X3.126Y-8.4559
X4.1102Y-8.4559
X4.0185Y-1.3441
X5.8728Y-1.3441
X7.6876Y-1.4141
X8.6719Y-1.4141
X6.2898Y-1.3441
X7.274Y-1.3441
T12
X12.5Y-8.5
X1.3Y-1.3
X1.3Y-8.5
X12.5Y-1.3
T4
G00X9.8024Y-1.3252
M15
G01X9.8024Y-1.2662
M16
G05
G00X10.0976Y-1.3252
M15
G01X10.0976Y-1.2662
M16
G05
G00X9.0524Y-1.3252
M15
G01X9.0524Y-1.2662
M16
G05
G00X9.3476Y-1.3252
M15
G01X9.3476Y-1.2662
M16
G05
G00X10.5524Y-1.3252
M15
G01X10.5524Y-1.2662
M16
G05
G00X10.8476Y-1.3252
M15
G01X10.8476Y-1.2662
M16
G05
T5
G00X11.84Y-1.3689
M15
G01X11.84Y-1.4673
M16
G05
G00X11.9758Y-1.3
M15
G01X12.0742Y-1.3
M16
G05
G00X11.9758Y-1.5362
M15
G01X12.0742Y-1.5362
M16
G05
T8
G00X9.9735Y-1.15
M15
G01X9.9265Y-1.15
M16
G05
G00X9.2235Y-1.15
M15
G01X9.1765Y-1.15
M16
G05
G00X10.7235Y-1.15
M15
G01X10.6765Y-1.15
M16
G05
T0
M30
